<svg xmlns="http://www.w3.org/2000/svg" width="40" height="39" viewBox="0 0 40 39">
  <path fill="gray" fill-rule="evenodd" d="M82.0001656,919 C70.955827,919 62,927.95384 62,938.999834 C62,947.836431 67.7306562,955.333347 75.6773339,957.977934 C76.6768785,958.163072 77.0438419,957.54407 77.0438419,957.015815 C77.0438419,956.538895 77.025295,954.963403 77.0166839,953.292196 C71.4526185,954.502049 70.2785345,950.932436 70.2785345,950.932436 C69.3687435,948.6207 68.0578762,948.006003 68.0578762,948.006003 C66.2432623,946.764686 68.1946595,946.790188 68.1946595,946.790188 C70.2030221,946.930946 71.2605258,948.851211 71.2605258,948.851211 C73.0443386,951.908797 75.9393086,951.02484 77.0806044,950.513807 C77.2601118,949.221486 77.778431,948.338522 78.3504036,947.839412 C73.9080936,947.333678 69.2382529,945.618754 69.2382529,937.955247 C69.2382529,935.771683 70.0195405,933.987539 71.2989443,932.586918 C71.0912854,932.08284 70.4067067,930.048975 71.492693,927.294101 C71.492693,927.294101 73.1721797,926.756572 76.9941627,929.344194 C78.589526,928.901056 80.3004761,928.678824 82.0001656,928.671207 C83.6998551,928.678824 85.41213,928.901056 87.010474,929.344194 C90.8278203,926.756572 92.5049886,927.294101 92.5049886,927.294101 C93.5936245,930.048975 92.9087146,932.08284 92.7010557,932.586918 C93.9834403,933.987539 94.7594287,935.771683 94.7594287,937.955247 C94.7594287,945.63697 90.0806458,947.328379 85.6270751,947.823515 C86.3444421,948.444173 86.9836473,949.661312 86.9836473,951.527261 C86.9836473,954.202981 86.9604637,956.356738 86.9604637,957.015815 C86.9604637,957.548044 87.320472,958.171683 88.3342579,957.975285 C96.2766301,955.327717 102,947.833451 102,938.999834 C102,927.95384 93.0454978,919 82.0001656,919" transform="translate(-62 -919)"/>
</svg>
