<svg xmlns="http://www.w3.org/2000/svg" width="40" height="39" viewBox="0 0 40 39">
  <path fill="gray" d="M147,958 C135.954305,958 127,949.269553 127,938.5 C127,927.730447 135.954305,919 147,919 C158.045695,919 167,927.730447 167,938.5 C167,949.269553 158.045695,958 147,958 Z M147.034,953.114 C147.555336,953.114 148.161663,953.102667 148.853,953.08 C149.544337,953.057333 150.246996,953.017667 150.961,952.961 C151.675004,952.904333 152.371997,952.830667 153.052,952.74 C153.732003,952.649333 154.332664,952.547334 154.854,952.434 L154.854,951.04 L147.034,951.04 C145.447325,951.04 143.996673,950.773669 142.682,950.241 C141.367327,949.708331 140.239671,948.954672 139.299,947.98 C138.358329,947.005328 137.627336,945.821007 137.106,944.427 C136.584664,943.032993 136.324,941.463342 136.324,939.718 L136.324,938.494 C136.324,936.793991 136.584664,935.235674 137.106,933.819 C137.627336,932.402326 138.358329,931.184005 139.299,930.164 C140.239671,929.143995 141.367327,928.35067 142.682,927.784 C143.996673,927.217331 145.447325,926.934 147.034,926.934 C148.507341,926.934 149.87866,927.166331 151.148,927.631 C152.41734,928.095669 153.522329,928.769996 154.463,929.654 C155.403671,930.538004 156.140331,931.61466 156.673,932.884 C157.205669,934.15334 157.472,935.581325 157.472,937.168 L157.472,938.46 C157.472,940.658678 157.217003,942.256662 156.707,943.254 C156.196997,944.251338 155.579337,944.75 154.854,944.75 C154.355331,944.75 153.992668,944.563002 153.766,944.189 C153.539332,943.814998 153.426,943.299337 153.426,942.642 L153.426,932 L151.556,932 L149.55,934.312 L149.346,934.312 C149.164666,933.541329 148.734003,932.912336 148.054,932.425 C147.373997,931.937664 146.512672,931.694 145.47,931.694 C144.676663,931.694 143.940003,931.852665 143.26,932.17 C142.579997,932.487335 141.996336,932.957664 141.509,933.581 C141.021664,934.204336 140.642001,934.980662 140.37,935.91 C140.097999,936.839338 139.962,937.927327 139.962,939.174 C139.962,940.420673 140.097999,941.508662 140.37,942.438 C140.642001,943.367338 141.021664,944.143664 141.509,944.767 C141.996336,945.390336 142.579997,945.860665 143.26,946.178 C143.940003,946.495335 144.676663,946.654 145.47,946.654 C146.626006,946.654 147.526997,946.359336 148.173,945.77 C148.819003,945.180664 149.232666,944.398672 149.414,943.424 L149.584,943.424 C149.765334,944.398672 150.275329,945.180664 151.114,945.77 C151.952671,946.359336 153.029327,946.654 154.344,946.654 C155.409339,946.654 156.344329,946.427336 157.149,945.974 C157.953671,945.520664 158.622331,944.891671 159.155,944.087 C159.687669,943.282329 160.089999,942.324672 160.362,941.214 C160.634001,940.103328 160.77,938.890673 160.77,937.576 C160.77,935.649324 160.441337,933.898341 159.784,932.323 C159.126663,930.747659 158.197339,929.410339 156.996,928.311 C155.794661,927.211661 154.349675,926.36167 152.661,925.761 C150.972325,925.16033 149.096677,924.86 147.034,924.86 C144.880656,924.86 142.937009,925.21133 141.203,925.914 C139.468991,926.61667 137.995673,927.60266 136.783,928.872 C135.570327,930.14134 134.641003,931.648658 133.995,933.394 C133.348997,935.139342 133.026,937.043323 133.026,939.106 C133.026,941.191344 133.337664,943.089658 133.961,944.801 C134.584336,946.512342 135.496661,947.98566 136.698,949.221 C137.899339,950.45634 139.366991,951.413997 141.101,952.094 C142.835009,952.774003 144.812656,953.114 147.034,953.114 Z M147.034,944.274 C146.285996,944.274 145.679669,944.002003 145.215,943.458 C144.750331,942.913997 144.518,942.211338 144.518,941.35 L144.518,936.998 C144.518,936.136662 144.750331,935.434003 145.215,934.89 C145.679669,934.345997 146.285996,934.074 147.034,934.074 C147.714003,934.074 148.240998,934.255332 148.615,934.618 C148.989002,934.980668 149.176,935.422664 149.176,935.944 L149.176,942.064 C149.176,942.313335 149.130667,942.568332 149.04,942.829 C148.949333,943.089668 148.807668,943.327666 148.615,943.543 C148.422332,943.758334 148.195668,943.933999 147.935,944.07 C147.674332,944.206001 147.374002,944.274 147.034,944.274 Z" transform="translate(-127 -919)"/>
</svg>
