<svg id="Layer_1" data-name="Layer 1" xmlns="http://www.w3.org/2000/svg" viewBox="0 0 230.9 256"><defs><style>.cls-1{fill:#595959;}</style></defs><title>i-love-nodejs</title><g id="Page-1"><g id="i-love-nodejs"><path id="Shape" class="cls-1" d="M115.58,256a21.23,21.23,0,0,1-10.11-2.59L73.75,234.84c-4.75-2.59-2.37-3.54-1-4a58.26,58.26,0,0,0,14.3-6.38,2.21,2.21,0,0,1,2.37,0l24.35,14.34a3.06,3.06,0,0,0,2.88,0l95.22-54.32a2.68,2.68,0,0,0,1.41-2.59V73.66a2.68,2.68,0,0,0-1.41-2.59L116.59,17a3.06,3.06,0,0,0-2.88,0L18.64,71.07a2.9,2.9,0,0,0-1.41,2.59V182.11a2.9,2.9,0,0,0,1.41,2.59l26,14.94c14.1,7.07,22.94-1.2,22.94-9.42V83.07a2.87,2.87,0,0,1,2.88-2.84H82.64a2.87,2.87,0,0,1,2.88,2.84V190.13c0,18.57-10.1,29.42-28.19,29.42a41.42,41.42,0,0,1-22-5.87L10.1,199.59A19.88,19.88,0,0,1,0,182.41V73.91A19.87,19.87,0,0,1,10.51,56.83L105.73,2.51a21.56,21.56,0,0,1,20.2,0L220.8,56.83A19.86,19.86,0,0,1,230.9,74V182.46a19.86,19.86,0,0,1-10.1,17.18L125.58,254A27.23,27.23,0,0,1,115.58,256Z"/><path id="Shape-2" data-name="Shape" class="cls-1" d="M144.61,180.71c-40.72,0-49.24-19-49.24-35.19a2.84,2.84,0,0,1,2.81-2.87h12.11a2.41,2.41,0,0,1,1.77.63,2.48,2.48,0,0,1,.79,1.74c1.87,12.56,7.19,18.75,31.86,18.75,19.69,0,27.92-4.53,27.92-15.08,0-6.19-2.32-10.71-32.8-13.78-25.35-2.61-41.16-8.29-41.16-28.95,0-19.26,15.81-30.67,42.35-30.67,29.54,0,44.31,10.46,46.28,33.23a3.85,3.85,0,0,1-.69,2.16,2.85,2.85,0,0,1-1.87,1H172.43a2.72,2.72,0,0,1-2.56-2.16c-2.81-13.07-9.85-17.35-29.1-17.35-21.42,0-24,7.59-24,13.32,0,6.89,3,9,31.86,12.82s42.1,9.25,42.1,29.71S174,180.71,144.61,180.71Z"/></g></g></svg>