<svg id="Layer_1" data-name="Layer 1" xmlns="http://www.w3.org/2000/svg" viewBox="0 0 217.62 256"><defs><style>.cls-1{fill:#595959;}</style></defs><title>i-love-apple</title><path class="cls-1" d="M161.76,62c-22.13-1.72-40.91,11.54-50.92,11.54-10.48,0-27.1-11.6-44.25-11.06a66.58,66.58,0,0,0-55.32,32c-23.79,39.32-6,97.35,17.15,128.87,11.06,15.46,24.91,33.19,42,32.61s23.23-10.49,43.72-10.49,26,10.49,44.25,10,29.85-16,40.93-31.47c12.75-18.29,18.29-35.4,18.29-36.54-.56,0-35.39-13.3-36-52-.56-32.62,27.63-48,28.77-48.66C194.87,64.66,170.59,62.46,161.76,62"/><path class="cls-1" d="M148.46,40.93c9.38-11.06,15.46-26,13.84-40.93C149,.56,132.45,8.86,123,19.39c-8.86,9.38-16,24.9-14.41,39.81,15,1.06,30.49-7.72,39.88-18.25"/></svg>