<svg id="Layer_1" data-name="Layer 1" xmlns="http://www.w3.org/2000/svg" viewBox="0 0 225.76 256"><defs><style>.cls-1{fill:#393939;}.cls-2{fill:#474747;}.cls-3{fill:#6b6b6b;}.cls-4{fill:#b7b7b7;}</style></defs><title>i-love-html5</title><polygon class="cls-1" points="20.56 230.4 0 0 225.76 0 205.22 230.4 112.78 256 20.56 230.4"/><polygon class="cls-2" points="112.88 236.38 187.58 215.72 205.18 18.82 112.88 18.82 112.88 236.38"/><polygon class="cls-3" points="112.88 104.28 75.48 104.28 72.9 75.36 112.88 75.36 112.88 47.1 112.8 47.1 42.02 47.1 42.68 54.66 49.66 132.54 112.88 132.54 112.88 104.28"/><polygon class="cls-3" points="112.88 177.68 112.78 177.68 81.3 169.2 79.28 146.7 63.96 146.7 50.88 146.7 54.86 191 112.78 207.16 112.88 207.12 112.88 177.68"/><polygon class="cls-4" points="112.8 104.28 112.8 132.54 147.56 132.54 144.3 169.2 112.8 177.68 112.8 207.12 170.72 191 171.16 186.28 177.8 111.88 178.5 104.28 170.86 104.28 112.8 104.28"/><polygon class="cls-4" points="112.8 47.1 112.8 64.62 112.8 75.26 112.8 75.36 180.94 75.36 180.94 75.36 181.02 75.36 181.64 68.98 182.9 54.66 183.6 47.1 112.8 47.1"/></svg>