<svg id="Layer_1" data-name="Layer 1" xmlns="http://www.w3.org/2000/svg" viewBox="0 0 256 228.21"><defs><style>.cls-1{fill:#595959;}</style></defs><title>i-love-reactjs</title><circle class="cls-1" cx="128" cy="114.06" r="22.82"/><path class="cls-1" d="M128,166.37c-71.78,0-128-23-128-52.32S56.22,61.74,128,61.74s128,23,128,52.31S199.78,166.37,128,166.37Zm0-93.5c-68.88,0-116.87,21.71-116.87,41.18s48,41.19,116.87,41.19,116.87-21.71,116.87-41.19S196.88,72.87,128,72.87Z"/><path class="cls-1" d="M179.1,228.21c-11.34,0-25.06-6.23-39.95-18.33-19.72-16-39.77-40.77-56.45-69.66C46.81,78.05,38.6,17.87,64,3.21S137.42,25.75,173.3,87.9c16.68,28.89,28.09,58.63,32.11,83.73,4.31,26.88-.46,45.81-13.41,53.27A25.26,25.26,0,0,1,179.1,228.21ZM76.86,11.07a14.39,14.39,0,0,0-7.29,1.77C52.7,22.59,57.9,75,92.34,134.65c16,27.75,35.14,51.39,53.83,66.59,17,13.85,31.72,19,40.26,14s11.46-20.2,8-41.88c-3.81-23.79-14.74-52.17-30.76-79.92h0C133.45,41.13,96.79,11.07,76.86,11.07Z"/><path class="cls-1" d="M76.9,228.21A25.29,25.29,0,0,1,64,224.9c-13-7.46-17.72-26.39-13.41-53.27,4-25.1,15.43-54.84,32.11-83.73C118.58,25.75,166.6-11.51,192,3.21s17.19,74.84-18.7,137h0c-16.68,28.89-36.73,53.63-56.45,69.66C102,222,88.24,228.21,76.9,228.21ZM179.13,11.07c-19.92,0-56.58,30.06-86.79,82.4-16,27.75-26.95,56.13-30.76,79.92-3.47,21.68-.56,37,8,41.88s23.22-.19,40.26-14c18.69-15.2,37.81-38.84,53.83-66.59C198.1,75,203.3,22.59,186.43,12.84A14.41,14.41,0,0,0,179.13,11.07Z"/></svg>