<svg xmlns="http://www.w3.org/2000/svg" viewBox="0 0 30 34">
  <g fill="none">
    <polygon fill="#595959" points=".933 8.48 15.2 .173 29.467 8.48 29.467 25.08 15.2 33.387 .933 25.08"/>
    <polygon fill="#B7B7B7" points="15.6 16.773 28.867 9.133 29.4 24.533 15.6 32.867"/>
    <path fill="#666" d="M29.0666667,8.66666667 L29.0266667,24.9866667 L15.1866667,33.0133333 L15.12,16.9733333 L29.0666667,8.66666667 Z M17.4266667,18.3066667 L17.4666667,29.0266667 L22.0666667,26.3466667 L22.0533333,18.2666667 L24.3733333,16.8933333 L24.3733333,25 L26.6933333,23.64 L26.7066667,12.7866667 L17.4266667,18.3066667 Z"/>
    <path fill="#3D3D3D" d="M16.1066667,0.293333333 C15.4666667,-0.0666666667 14.44,-0.0666666667 13.8,0.293333333 L1.16,7.56 C0.52,7.92 0.0133333333,8.82666667 0.0133333333,9.54666667 L0.0133333333,24.08 C0.0133333333,24.8133333 0.533333333,25.7066667 1.16,26.0666667 L13.8,33.3333333 C14.44,33.6933333 15.4666667,33.6933333 16.1066667,33.3333333 L28.7466667,26.0666667 C29.3866667,25.7066667 29.8933333,24.8 29.8933333,24.08 L29.8933333,9.54666667 C29.8933333,8.81333333 29.3733333,7.92 28.7466667,7.56 L16.1066667,0.293333333 Z M27.32,7.89333333 C27.96,8.25333333 27.96,8.85333333 27.32,9.21333333 L16.2533333,15.5733333 C15.6133333,15.9333333 14.5866667,15.9333333 13.9466667,15.5733333 L2.72,9.12 C2.08,8.76 2.08,8.16 2.72,7.8 L13.7866667,1.44 C14.4266667,1.08 15.4533333,1.08 16.0933333,1.44 L27.32,7.89333333 Z M1,10.6 C1,9.86666667 1.52,9.57333333 2.14666667,9.93333333 L13.4666667,16.44 C14.1066667,16.8 14.6133333,17.7066667 14.6133333,18.4266667 L14.6133333,31.3333333 C14.6133333,32.0666667 14.0933333,32.36 13.4666667,32 L2.14666667,25.4933333 C1.50666667,25.1333333 1,24.2266667 1,23.5066667 L1,10.6 Z M16.7733333,32.0666667 C16.1333333,32.4266667 15.6266667,32.1333333 15.6266667,31.4 L15.6266667,18.6933333 C15.6266667,17.96 16.1466667,17.0666667 16.7733333,16.7066667 L27.76,10.4 C28.4,10.04 28.9066667,10.3333333 28.9066667,11.0666667 L28.9066667,23.7733333 C28.9066667,24.5066667 28.3866667,25.4 27.76,25.76 L16.7733333,32.0666667 Z"/>
  </g>
</svg>
