<svg id="Layer_1" data-name="Layer 1" xmlns="http://www.w3.org/2000/svg" viewBox="0 0 256 255.9"><defs><style>.cls-1{fill:#787878;}</style></defs><title>i-love-postcss</title><path class="cls-1" d="M47.7,106.89c.35.27.95.44.35,1a15,15,0,0,0-1.3,1.82c-.34.61-.6.78-1.12.35q1-1.7,2.07-3.12Zm173.71,90.7c0,.26.09.43.09.69.17-.35.17-.52.26-.69Zm0,.77v0Zm-17.62,33.75-15-83.42c-.25-.08-.6-.25-1.2-.42a5.22,5.22,0,0,1,.34.86,4.4,4.4,0,0,0,.78-.17.31.31,0,0,1,.09-.26l15,83.42Zm-15.56-102.2a2.32,2.32,0,0,0-.09.78,2.1,2.1,0,0,1,.1-.78Zm.08,1.73c-.08,0-.08,0-.17-.09v.08c.1.09.1.09.18,0Zm-.17.69v-.61c-.25.09-.51.09-.86.18.44.16.87.25.87.42Z"/><path class="cls-1" d="M255.46,111.31c-.17-3.38-.25-6.76-.6-10.13-.6-4.59-1.21-9.26-2.25-13.76a77,77,0,0,0-3.37-10.82,128.63,128.63,0,0,0-5.36-12.37c-3.36-6.41-7.77-12.12-11.83-18.09-2.69-3.81-6.15-6.92-8.74-10.82a26.66,26.66,0,0,0-5.79-5.88c-3.46-2.77-7.09-5.28-10.72-7.7-2.76-1.91-5.53-3.73-8.47-5.37-2.33-1.3-4.84-2.34-7.26-3.47-2.76-1.3-5.44-2.86-8.55-3.46a19.33,19.33,0,0,1-2.25-.69c-2-.69-3.89-1.47-5.88-2.08-3-1-6-2.07-9.07-2.85a81.52,81.52,0,0,0-9.25-1.73c-3.45-.51-7-.69-10.45-1C143.37.8,141.13.54,139,.45,135.68.28,132.31.28,129,.2A49.45,49.45,0,0,0,124,0c-2.51.09-5,.35-7.53.69s-4.83.69-7.16,1.05c-2.85.34-5.7.51-8.56.86-2.68.35-5.44.87-8.12,1.3-1,.18-1.9.52-2.86.69a56.85,56.85,0,0,0-6.3,1.3C79.78,7,76.06,8.34,72.43,9.72a102.52,102.52,0,0,0-9.85,4.59c-3.29,1.81-6.4,4-9.51,6.06-2.94,2-5.88,4.06-8.74,6.31a104.81,104.81,0,0,0-7.86,7c-1.38,1.38-2.5,3-3.8,4.59-2.16,2.51-4.32,4.93-6.4,7.53C24.55,48,23,50.22,21.35,52.47a109.82,109.82,0,0,0-7.77,12.46c-.95,1.74-1.82,3.47-2.68,5.19C9.6,72.72,8.22,75.23,7,77.91a32.79,32.79,0,0,0-2.08,5.8C3.73,88,2.52,92.28,1.39,96.52A49.1,49.1,0,0,0,0,108.21,82.59,82.59,0,0,0,.62,118.5c.08.87-.43,1.91.6,2.6-.35,1-.09,1.48.43,1.64-.6,1,.26,1.56-.08,2.43-.09.17.26.52.42.78a3.1,3.1,0,0,0,0,.86,17.78,17.78,0,0,1,.44,2.43c0,.6.52,1.29.69,1.9A1,1,0,0,1,3,132c-.52.6-.44,1.12.34,1.47a3.28,3.28,0,0,1,.18,2.16c.17.78-.09,1,0,1.21a11.39,11.39,0,0,1,1,4.5,3.37,3.37,0,0,0,.35,1.13,10,10,0,0,1,0,1.64,6.94,6.94,0,0,1,1.21-.51,29.18,29.18,0,0,0,.86,3.12c.44.68.44,1,.27,1.11a26.19,26.19,0,0,0,1.11,4.5,29.63,29.63,0,0,0-.42-4.84,11.29,11.29,0,0,0,2.94.86,6.46,6.46,0,0,1,.26-.78c-.52-.51-.95-1.29-1.47-1.81a2.7,2.7,0,0,1,0,1.21c-.35-.17-.78-.35-1.21-.52a14.7,14.7,0,0,1,1.21-1.38c0-.78-.43-1.48-1.65-1.39.52-.17,1-.43,1.65-.6,1-.52-.09-1.47-.09-2.68.09-1.47-.78-2.94-1-4.5-.43-2.42-.34-6.06-.6-8.48-.52-.44-1,.69-1,.78.26,2.07.52,4.15.69,6.23-.51-1.73-.86-3.64-1.29-5.72a9.66,9.66,0,0,0-.18,1.22c-.42.42-.08.95.18,1.55a2.82,2.82,0,0,0-1.3-.17v2.43a11.76,11.76,0,0,1-1.55-2.17c-.17-.69-.27-1.38-.43-2.07a1.87,1.87,0,0,0,0-.95c-.09-.61-.18-1.3-.26-2.08a7.44,7.44,0,0,0-.09-1.38,15.21,15.21,0,0,0,1.56.16c-.87-1.12-.26-1.81.09-2.51.17-.34.78-.42,1-.78C5.9,120.68,7,119.64,7,118c0-.78.26-1.64.34-2.42.17-1.47.35-2.94.43-4.41a40,40,0,0,1,.43-5.63c.7-3,1.56-6,2.51-9.08.69-2.17,1.47-4.24,2.33-6.41a99.87,99.87,0,0,1,4.16-10c2.33-4.68,5-9.17,7.6-13.76C26.47,63.47,28.2,60.79,30,58s3.45-5.45,5.44-8a70.24,70.24,0,0,1,9.17-9.78c3.45-3.12,6.74-6.32,10.45-9.17a104.82,104.82,0,0,1,15.38-9.88A119.91,119.91,0,0,1,84,15.34c2.94-1.12,6.13-1.64,9.16-2.59A36.28,36.28,0,0,1,103.73,11c2.33-.09,4.58-.35,6.92-.61,2.07-.16,4.14-.34,6.39-.6a3.64,3.64,0,0,0-.43.69c-1,1.39-2,2.77-2.94,4.16-.77,1.12-1.64,2.33-2.42,3.46-1.38,1.82-2.85,3.64-4.15,5.54-2,2.86-3.8,5.8-5.88,8.65s-4.32,5.37-6.48,8c-2.85,3.72-5.53,7.53-8.38,11.25C83.77,55.16,81,58.54,78.5,62.09c-2.25,3.11-4.24,6.4-6.4,9.6-3.19,4.76-6.39,9.43-9.59,14.19-2.51,3.63-5,7.18-7.6,10.82a2.17,2.17,0,0,1-.69.51,11.92,11.92,0,0,0-.95,2.25c-.69,1.3-1.38,2.6-2.17,3.81-.43.69-1,1.3-1.55,2-.09-1,1.38-1.56.69-2.86-.43.7-.87,1.3-1.3,2l-1,2.07c.34.26,1,.43.34,1-.26.43-.52,1-.78,1.39a3.09,3.09,0,0,0,1-.87,5.18,5.18,0,0,1-1,2.51c-.34.69-1.21,1.21-1.81,1.73.09.09.69.34.78.43.78-.26,1-.69,1.12-.43a3.89,3.89,0,0,0,.61-.87,3.14,3.14,0,0,1,1.72-1.9,3.73,3.73,0,0,0,.87-.69c2.59-2.69,5.27-5.28,7.6-8.14,3.63-4.42,6.92-9,10.38-13.5,1.47-1.9,3.2-3.81,4.75-5.63a32.12,32.12,0,0,1,0,5.72c-.26,3.2-.43,6.4-.69,9.69-.09,1.29,0,2.59-.09,3.89,0,.35-.26.61-.26,1,0,.87.26,1.82.26,2.69-.26,3.2-.61,6.31-.87,9.51a5.2,5.2,0,0,0,.43,2c-.43,4.67.52,9.6-.26,14.54a3.86,3.86,0,0,0,.78-2.16,11.34,11.34,0,0,0,0-1.65v-.86a30.52,30.52,0,0,0,.26-4.77,15.82,15.82,0,0,1,.17-5c.17-.69-.09-1.56.35-2.43v1.3c-.09,4.93.09,9.86-.6,14.79-.09.44.26,1.22-.69,1.13-.78,1.56.17,2.68-.69,3.55-.18.17.16.95.25,1.47-.35,1-.35,1,.17,1.13.09,1.9.26,3.63.35,5.45,1.38-3.29.69-6.67,1.3-10a35,35,0,0,1,.08,4.24c0,2.26-.08,4.42-.17,6.67a7.36,7.36,0,0,1-.17,1.3,25,25,0,0,1-.78,3.54,9.66,9.66,0,0,0-.17,3.21v3.29c.34,1.47-.09,2.25.17,3.11-.26.87-.35,1.13-.26,1.39l.26,1.3c1.73-.17.95,1.13,1.64,1.82a1.44,1.44,0,0,0-.34,1.3,21.29,21.29,0,0,1-.17,2.25c0,2-.09,4-.09,5.88,0,.27.09.52.09.78s-.09,2.43-.09,2.43c.17.26,0,.52-.26.78-.08,0-.34-11-.34-11h-1.3c-.17,5.19.26,9.87-.69,14.72a24,24,0,0,1-2.51.25c-2.68,0-5.36,0-8,.09-3.2,0-6.31.08-9.51.08-1.55,0-3.19.18-4.75.18-2.07,0-4.23-.26-6.3-.26-3.2,0-6.31.26-9.51.35-2.33.08-4.67.08-7,.17-1.56.08-3.12.16-4.67.34a14.59,14.59,0,0,0-2.16.61,6.93,6.93,0,0,0-1.38,0c-.87.17-1.64.69-2.51.86-1.3.27-1.64.61-1.47,1.91v.86c-.09.17,1.9-.26,1.9-.26-.17,0-.26.52-.52.95l1.56-.6c1.3.6,2.42.26,3.45.52A68.6,68.6,0,0,0,27.93,187c2.25.17,4.41.26,6.66.34,3.19.17,6.39.35,9.59.35,2.68,0,5.27-.26,8-.26,3.71,0,7.43.17,11.15.26.77,0,1.64-.09,2.5-.09h6.31c5.62-.17,11.24-.27,16.85-.43,3.21-.09,6.49-.26,9.69-.35l9.85-.26c3.8-.09,7.6-.09,11.32-.17,2.85,0,5.62-.1,8.47-.18,3.2-.08,6.48-.34,9.68-.52,1.73-.08,3.46-.26,5.19-.43,2.07-.17,4.23-.43,6.3-.51,3.12-.18,6.32-.27,9.43-.44,3.89-.26,7.78-.6,11.75-.69,3.63-.17,7.35-.09,11-.17,3.2-.09,6.4-.26,9.68-.35l5.45-.26s3.63-.09,5.44-.26c3.11-.18,6.22-.52,9.34-.61,2-.08,4,0,6-.08,3.19-.09,6.48-.27,9.68-.27,1.2,0,2.5.18,4,.27-.68.6-1.12.95-1.64,1.38a5.72,5.72,0,0,1,1,.43,2.3,2.3,0,0,1-1.38.43,5.23,5.23,0,0,0-.52,1.48h1.55c-.6,0-1.12.78-1.73,1.3a1.25,1.25,0,0,0-1.64.95c.61.34.52.6.44.95-1,.34-1.82.69-1.38,1.81-.35.18-.78.35-1.22.61-.43.69-1.21.86-1,1.81.35.09.69.27,1,.35-.44.17-.87.43-1.3.6-1.55.95-.86,1.39-.52,1.82a4,4,0,0,1-.77.43c.17.78.42,1,.51,1-.34.25-.78.6-1.3,1a5.83,5.83,0,0,1-.95,1.65,17.54,17.54,0,0,1-.95,1.73c-1.81,2-3.11,4.33-5.44,5.88a18.9,18.9,0,0,0-2.42,2.17c-1.56,1.47-2.94,3.12-4.58,4.5-2.16,1.82-4.41,3.46-6.74,5.1-2.85,2-5.7,4-8.56,5.89-1.55,1-3.28,1.81-4.92,2.77s-3.2,1.81-4.84,2.76a25.25,25.25,0,0,1-3.12,2.17c-2.85,1.22-5.87,2.25-8.81,3.38s-4.93,2.25-7.09,3a50.74,50.74,0,0,1-6.13,1.64,20.23,20.23,0,0,1-2.25.09c-1.47.26-2.94.61-4.41.78-3.8.52-7.61.86-11.41,1.38-2.25.27-4.41.69-6.65,1-1.56.08-3.2-.09-4.76-.09a23.39,23.39,0,0,1-3.45.09c-1.82-.26-3.63-.69-5.45-1-.43-.08-1-.26-1.38-.08-.69.34-1.3-.17-2,0-.43.08-.86-.27-1.3-.27s-.78.1-1.21,0a8.05,8.05,0,0,0-2.86-.51,11.6,11.6,0,0,1-3.18-.69l-4.59-1a8.18,8.18,0,0,1-1.72-.78A14.21,14.21,0,0,1,95,239a7.79,7.79,0,0,0-3.63-.86c-.34.09-.6-.08-1-.08-.26-.35-.51-1-.77-1-1.73.09-2.76-1.38-4.24-1.81-.77-.26-1.38-1.13-2.15-1.39-1.91-.78-3.46-2.42-5.62-2.68a12.74,12.74,0,0,1-2.16-.69,8.09,8.09,0,0,0,.69.86c-2.51-1.21-4.84-2.59-7.17-3.89-.34-.09-.6-.43-.86-.61l-2.34-1.55a2.58,2.58,0,0,1-2.16-.44c-2.33-1.64-5-2.68-7.26-4.5a14.33,14.33,0,0,1-2.76-2.25,13.56,13.56,0,0,0-4.32-3.37c-1.3-.69-2.51-1.47-3.72-2.25a2.3,2.3,0,0,1-1.21-1.91c0-.6-.26-1.21-1-.86-.34-.52-.68-1.13-1.12-1.3a8.94,8.94,0,0,1-2.5-1.9c-.78-.69-1.38-1.65-2.34-2-1.73-.69-2.76-2.16-3.8-3.37-2.42-2.86-4.58-6-6.83-9-.17-.27-.52-.44-.78-.7a25.81,25.81,0,0,0,1.21,2.6,5.28,5.28,0,0,1-2-1.56c-.09.09,6,10,6,10,.52.78,1,1.56,1.47,2.34a2.69,2.69,0,0,1-2.6-1.39c-.77-1.38-1.64-2.25-3.37-2.07a14.74,14.74,0,0,1-.42-1.9,6.89,6.89,0,0,1-1.22-.09c1.22,1.9,2.25,3.55,3.38,5.45-.44-.26-.69-.43-.87-.52,1.55,1.64,2.67,3.72,4.66,4.76.43,2,2.68,2.94,3.2,4.85l-1.22-.27c-.69-.86-1.47-1.72-2.24-2.68a4.38,4.38,0,0,0,.77,1.56,32.64,32.64,0,0,0,3.2,3.72c.44.44,1,.62,1,1.39a2.72,2.72,0,0,0,1.21.43c.18.53-.08,1.31.95,1.13.69,1.3,1.38,1.3,2.33.87,1.13,1.12,1.74,1.21,2.51.52,0,.43.09.86.09,1.21.34-.17.26-.43.26-.86.43.34.69.51.86.68A14.66,14.66,0,0,0,48,225c1.64,1.38,3.12,2.85,4.67,4.15a65.48,65.48,0,0,0,9.77,6.49c4.15,2.34,8.12,4.85,12.36,7.1a66.84,66.84,0,0,0,16.15,5.8c2.08.43,4.07.86,6.15,1.38,1.8.52,3.62,1.3,5.44,1.73,2.76.61,5.61,1.13,8.38,1.64l1.9.27c.77.17,1.72-.18,1.9.09.43.69.78.34,1.3.25a7.46,7.46,0,0,1,2-.17c2.42.08,4.75.6,7.17.43.53,0,1.31-.44,1.74.43a5.66,5.66,0,0,1,1.55-.43c.09.78,0,.78-.16.86a3.73,3.73,0,0,0-.78.44,19.45,19.45,0,0,0,8.63,0,29.09,29.09,0,0,0,12.11-1.48c.34.44.6,1,1.12.18.17-.26.61-.35.95-.44a4.8,4.8,0,0,1,2.42-.26c.78.26,1-.43,1.64-.43a16.6,16.6,0,0,0,2.95-.26c.51-.09,1-.35,1.64-.52a4.22,4.22,0,0,0-1.91-.44c1-.52,2-1,2.95-1.38-.18.26-.35.61-.69.61h1.2c-.26,0-.61.77-1,1.29,3.11-.78,6-1.47,8.73-2.17-.95-1.81,1-1.2,1.73-2.24-.87.26-1.73.52-2.6.69,2.94-1.47,6-2.77,8.9-4.06a5.71,5.71,0,0,1-1.72,1.21,8.51,8.51,0,0,1,1.12.17c1.38.43,1-.87,1.47-1.65a7.91,7.91,0,0,0,3.11-.52c.86-.26,1.73-.51,2.59-.86,1.38-.6,2.68-1.38,4.06-2.07a4,4,0,0,1,1,0c.95-.61,1.29-1.13,1.55-1a2,2,0,0,0,2.42-1.38c.61-.44,1-.78,1.47-1.05,1.9-1,3.71-2.07,5.61-3.11a3.47,3.47,0,0,0,1.21-.09,36.37,36.37,0,0,0,3.21-1.73,6.26,6.26,0,0,1-.87-.43,10.89,10.89,0,0,0,1.64-.43c2.07-2.43,4.93-4.08,7.09-6,1-.09,1-.34,1-.52a8.17,8.17,0,0,1,1.12-1.3c1.9-1.73,4-3.2,5.7-5,2.51-2.52,4.93-5.12,7.17-7.8a70.16,70.16,0,0,0,5.88-7.53c2.42-3.72,4.49-7.53,6.66-11.43,1.55-2.76,2.93-5.53,4.49-8.3.17-.26.52-.61.78-.61,2.33-.26,4.67-.42,6.92-.69a6.05,6.05,0,0,0,1.64-.69c-.26-.43-.44-.95-.69-1.38s-.87-.95-1.22-1.48a8.46,8.46,0,0,1-.86-1.47c-.26-.42-.52-.77-.78-1.21a31,31,0,0,1-1.47-2.94,1.69,1.69,0,0,1-.17-.95c1.55-3.37,2.16-7,3.62-10.39s1.91-7.35,2.6-11.07c.6-3.55,1-7.1,1.38-10.64.26-2.51.61-4.94.69-7.44a72.24,72.24,0,0,0,.26-11.43c-.08-3.29-.26-6.66-.43-10ZM38.63,217.84c-.6-.69-1.12-1.48-1.73-2.17l.27-.26c.94,1,1.89,2.08,2.84,3.21A4.43,4.43,0,0,1,38.63,217.84Zm1.38.78c.26-.09.53-.09.78-.18.27.44.44,1,.69,1.47-1.21-.08-1.81-.6-1.47-1.29Zm89.89,35.74v-.26l4.83-.52v.25a44,44,0,0,1-4.83.52Zm21.77-2.25c-1.2.26-2.5.44-3.71.61-.43.08-1,.52-1.12-.26-.18.09-.35.09-.52.17.42,1.3,1.47.26,2.33.78-1.91.26-3.71.43-5.53.69v-.17l1.64-.26v-.26a24.85,24.85,0,0,0-2.59-.18c-.26,0-.6.35-.86.44a4.71,4.71,0,0,1-1.13.17c-1.47.09-2.93.09-4.32.17-.09,0-.26-.08-.35-.08v-.26l17.29-2.34c.09.17.09.35.17.52a6.23,6.23,0,0,0-1.3.26Zm1.3-.86c2-.26,3.81-.44,5.71-.69-4,1.12-5.27,1.29-5.71.69ZM77.7,76.52c2.75-3.81,5.61-7.62,8.38-11.51.86-1.14,1.55-2.35,2.41-3.47a6,6,0,0,1,1-.87l-.08-.16a8.93,8.93,0,0,0,.86-1.13,16,16,0,0,0,1-2.25,1.25,1.25,0,0,1,.35-.34c1.21.6,1.21-.69,1.64-1.13.78-.86,1.56-1.81,2.25-2.68a17.26,17.26,0,0,0,1.47-2.08c.08-.26-.17-.68-.26-1h-.26c.26-.17.52-.42.78-.6.08,0,.08,0,.17-.09.52-.78,1-1.56,1.56-2.25a36.52,36.52,0,0,1,3.36-4c-.17.42-.34.86-.52,1.21.09,0,.09.08.18.08,1-1.38,2.16-2.68,3.2-4.07-.09-.08-.18-.17-.27-.17-.42.44-.77.87-1.21,1.3a.41.41,0,0,0-.26-.17c.87-1.13,1.74-2.25,2.6-3.55.17.26.34.61.69,1.3.35-.87.69-1.47,1-2.08-.26.27-.6.52-.86.78l-.26-.26L108.2,35c1.64-2.34,3.29-4.76,4.93-7.1.61-.86,1.38-1.56,1.9-2.42,1.65-3.29,4.24-5.89,6.22-8.92a15.12,15.12,0,0,1,1.56-1.64c.43-.52.78-.35,1.12.09,2.33,2.94,4.67,6,7,8.91,1.73,2.17,3.46,4.24,5.1,6.49,2,2.77,3.89,5.54,5.88,8.31,2.25,3.2,4.49,6.4,6.65,9.69,3.29,4.85,6.4,9.69,9.68,14.54,2.42,3.54,4.84,7,7.17,10.56H161c-4.06-.09-8.21-.43-12.27-.26-5.53.26-11.15.87-16.68,1.3-7,.61-14.08.69-21.08.69-2.51,0-5,.35-7.52.53-3,.17-6,.34-9,.42-3.55.18-7,.27-10.54.35-2,.09-4.07,0-6.23,0Zm99.12,39.8v.78c-.09,0-.17.09-.34.09-.35-1.21-.69-2.51-1.13-3.73a28.89,28.89,0,0,0-3.37-7.27c-1.73-2.42-3.28-4.92-5-7.44a14.21,14.21,0,0,0-1.56-1.64,30.17,30.17,0,0,0-6-5.54A70.5,70.5,0,0,0,148.64,86a24.21,24.21,0,0,1-3-1.56h2.07l14.78-.26c3.2-.08,6.31-.08,9.51-.26a1.71,1.71,0,0,1,1.64,1c.78,1.29,1.55,2.59,2.42,3.89a1.58,1.58,0,0,1,.26.69c0,1.9,0,3.89.09,5.8s.26,3.89.34,5.88-.18,4.07-.09,6.15c.09,2.94.18,6,.18,9Zm-93-29c4.06-.17,8-.43,11.93-.61,3.1-.17,6.3-.26,9.41-.43a20.1,20.1,0,0,1,3.8,0,31.16,31.16,0,0,0-4,2.25c-1.56,1-3,2.42-4.58,3.55a25.7,25.7,0,0,0-4.24,4c-1.64,2-3.46,3.72-5.19,5.62-1.21,1.39-2.59,2.69-3.63,4.16-1.47,1.9-2.76,4-4.15,6.14.44-8.22,1-16.36.61-24.66Zm56.43,83.25a69,69,0,0,1-8.47,1.82,52.27,52.27,0,0,1-7.43.26c-2.25,0-4.41-.08-6.66-.26a22.62,22.62,0,0,1-7.43-1.64c-2.08-1-4.24-1.82-6.31-2.86a16.77,16.77,0,0,1-5.71-4.15A32.83,32.83,0,0,0,94.19,160a4.07,4.07,0,0,0,1.81,2.5c-.43.52-1,.27-1.9-1.12a6.44,6.44,0,0,1-.69.35c.26-.61.52-1.22.78-1.73-.35-.69-.78-1.48-1.12-2.17-.69-1.13-1.38-2.33-2-3.46-.18-.26-.18-.52-.35-.78-.43-.52-.86-1-1.21-1.56a36.73,36.73,0,0,0-2.16-3.2c0,.27.09.52.09.87a.27.27,0,0,0-.17.09l-1.82-4.42c-.09,0-.09,0-.17.09l1.55,5.71c-.09,0-.17.08-.26.08a4.82,4.82,0,0,1-.69-1.11c-.17-.7-.69-.7-1.12-.44a1.18,1.18,0,0,0-.35,1c.61,1.47,1.3,2.94,2,4.41a10.17,10.17,0,0,0,.61,1.47c.09.18.34.35.34.61a15.59,15.59,0,0,0,1,2c.78,1,1.64,2.07,2.42,3.11s1.46,2.17,2.16,3.2c.08.18.34.18.42.27.44,1.29,1.91,2.24,2.95,1.72.26,2,2.42,2.69,3.28,4.59-1-.43-1.81-.78-2.51-1.13-.08.09-.08.17-.17.35,1,.52,2.07,1,3,1.64a27.81,27.81,0,0,1,2.51,1.64,7.81,7.81,0,0,0,3.71,1.82,1,1,0,0,0-.16-.35c2.42,1.13,4.92,2.34,6.82,3.29-9,.17-18.58.35-28.52.52,0-1.64-.09-3.2-.09-4.85a14.66,14.66,0,0,0,.09-2c-.27-4-.27-8-.78-11.85a84,84,0,0,1-.43-12.38c.08-2.25-.09-4.58-.18-6.83,0-3,0-6,.1-9a3.29,3.29,0,0,1,.34-1.22h.27c.08.18,0,.44.16.53.26.26.7.69.87.6.52-.35,1.3-.69,1.47-1.21a8.44,8.44,0,0,0,.6-3.2,3.15,3.15,0,0,1,.69-1.82,6.85,6.85,0,0,0,.44-.86c-.34-.26-.69-.44-1.12-.78.35-.95.26-2.08,1.56-2.59.17-.09.17-.53.26-.79.08-.7.16-1.47.26-2.16a2.93,2.93,0,0,0,.42.51,1.17,1.17,0,0,1,.18-.26c0-.34-.09-1,0-1,1-.17.6-1.29,1.12-1.81.09-.09-.09-.35-.09-.53s0-.42.09-.42c1.21-.27,1-1.56,1.81-2.17.27-.18.35-.43.69-.87.69,1.21-.52,1.82-.6,2.68,1.46-.86,1.9-2.93,1-3.54a5.4,5.4,0,0,0,1-1c1-1,2-2,2.85-3,.6-.78,1-1.73,1.55-2.51a5,5,0,0,1,1.56-1,10.45,10.45,0,0,0,4-3.28,5,5,0,0,1,.69-.52c.27-.18.78-.18.87-.44s-.17-.6-.35-.86c.35-.17.69-.52,1.38-.87-.26.52-.34.87-.52,1.22l.43.43c.78-.61,2-1.3,2.77-1.82,0-.08-.43-.42-.43-.42-.52.26-1.3.69-2.07,1,.16-.26.16-.43.26-.52a33.5,33.5,0,0,1,3.71-2.16c3-1.38,6-2.77,9.08-4.07a4.19,4.19,0,0,1,1.81-.08,1.82,1.82,0,0,0,.69-.09c1.38-.43,2.77-.86,4.15-1.21a7.25,7.25,0,0,1,1.9-.26c2.59.08,5.18.08,7.77.26a12.59,12.59,0,0,1,3.2.69,32.6,32.6,0,0,1,3.89,1.64,46.3,46.3,0,0,1,4.24,2.6c2.5,1.64,4.84,3.46,7.34,4.93a19.69,19.69,0,0,1,5.88,5.72c1.9,2.68,4.06,5.1,4.93,8.39l1.29,5.71c.26,1,.87,2.08.61,3.29-.44,2.17-.78,4.42-1.13,6.58a9.2,9.2,0,0,0-.26,2.59c.17,2.7-.87,5-1.9,7.45-.35.78-.87,1.56-1.3,2.43a2.94,2.94,0,0,0,.69.34l.78-1.55c.09,0,.09,0,.17.09-.43,1.2-.77,2.5-1.21,3.72-1,2.68-2.07,5.45-3.37,8a43.6,43.6,0,0,1-2.76,4.08c-.86,1.2-1.56,2.5-2.42,3.63a12.23,12.23,0,0,1-2.59,2.59,68.45,68.45,0,0,1-7.26,4.85,18.05,18.05,0,0,1-5.1,1.9ZM94.2,166l-.09.08a2,2,0,0,1-.61-.34l-2.07-3.12a1,1,0,0,1-.17-.86c.95,1.47,1.9,2.86,2.94,4.24ZM148,177.85a34.85,34.85,0,0,0,10-6.66,9.42,9.42,0,0,1,1.38-1.21,30.36,30.36,0,0,0,8.73-8.83c2.77-4,4.58-8.48,6.83-12.72a7.51,7.51,0,0,1,.52-1c-.18,9.87.95,19.56,2.24,29.34l-29.72,1Zm87.63-2.59c-.09.17-.26.35-.35.52a7,7,0,0,1-.17-.79c-.52,1.39-1.64.7-2.42.7-4.66.09-9.42.09-14.09.09-4.49,0-9.07,0-13.56.08-1.47,0-3,.34-4.5.43-3.54.17-7.09.26-10.63.35-.26,0-.52-.43-1-.78a5.39,5.39,0,0,1-.52.78c-.09-.17-.26-.34-.44-.6a4.39,4.39,0,0,1-.26.69h-.25a25.32,25.32,0,0,1-.52-3.55c0-2.59.26-5.19.35-7.79.09-1.21,0-2.33,0-3.46.34.26.6.44.95.69a6,6,0,0,1,.52-.85,1.78,1.78,0,0,1-.35-.27c.16-.09.34-.26.34-.34a3.65,3.65,0,0,0,.26-.69,9,9,0,0,0-.26-1.65.31.31,0,0,0,.26-.09l.52,2.6h.26c-.35-.6.78-1.13-.17-1.82-.09-.09.08-.6.08-.86-.26-.52-.42-1-.69-1.73a1.89,1.89,0,0,1,.61-.26,7.63,7.63,0,0,0-.87-.43c.87-.78.87-1.22.09-2.08.18-.08.35-.08.35-.16a10.81,10.81,0,0,0-.17-2.34c-.18-.87.26-1.9-1-2.43a2.22,2.22,0,0,0,.34.69,2.23,2.23,0,0,0-.51.27c-1.13-1-.43-2.43-.69-4a13.79,13.79,0,0,1,1.46.53c-.17-.61-.6-1.31-.86-2.08h-.35v-5.72c0,.09.6.09.95.18,0-.09.08-.17.08-.26-.26-.35-.6-.69-.95-1.13l.17-.17a3.12,3.12,0,0,1-.34-2.33v-6.06c.87.87-.43,2,.87,2.51v-.87h-.09c-.09-1.29-.09-2.59-.17-3.89h-.17c-.09.18-.09.26-.18.44h-.17l.52-20.69a27.21,27.21,0,0,1,2.41,3.29c2,3.64,4.59,6.75,7,10,2.07,2.86,4,6,5.87,8.91,2.34,3.55,4.58,7.1,6.92,10.64,1.73,2.69,3.54,5.37,5.35,8,1.64,2.33,3.38,4.58,5.1,6.84,1.47,2,3,4,4.49,6,1.73,2.42,3.46,4.84,5.19,7.18.86,1.21,1.82,2.42,2.76,3.63a10.32,10.32,0,0,0,1.82,1.64.69.69,0,0,1-.34-.08c.26.34.43.6.6.78,1,.52,1,1,.52,1.82ZM240,153.63V153c0,.17.08.43,0,.6Zm2.94-38.16a4.25,4.25,0,0,1-.69-.61c-.09.26,0,.52-.18.86-.09-.25-.69-.17-.69-.42-.09,1.2.52,2.42.43,3.63.26-.18,1.3-.26,1.56-.52a.68.68,0,0,0,.34.17c-1.73,1.3-1.29,2.59-.52,4.07.18.34.69,1,.18,1.73-.18.17.08.69.17,1.13h.25v.16l-.78.26c-.17-.26-1.2-.77-1.2-1.21v4.42c.86.26.86,1.47,1.21,2.08a2.81,2.81,0,0,0,.35-.69l.09.08a11.24,11.24,0,0,1-.35,1.56,19.23,19.23,0,0,0-.43,2.24c0,.09.17.27.17.35-.95,2.17-.43,4.58-.77,6.83-.27,1.64,0,3.38-.18,5.11a42,42,0,0,1-.87,4.5c-.08.26-.26.34-.69.52a6.92,6.92,0,0,0-.08-2.69c-.1,0-1.22-.6-1.31-.6a29.06,29.06,0,0,0,1,4.24c-.26-.09-1.29-.69-1.38-.69-.17,1-.17,2.42-.26,3.54-.09.87-.86,1.65-.95,2.6,0,.52.6.86.52,1.73h.69c0-1.73.78-3.28.78-5.1h.26c.08.17.34.35.26.43a10.67,10.67,0,0,0-.43,2.94c0,.52.42,1,.26,1.65a8.28,8.28,0,0,0-.35,1.82,5,5,0,0,1-.18-.87l-1-.09c-.09.52.61,1,.52,1.47-.09.09-.17.09-.35.18l-2.85-4.16c-2.25-3.28-4.5-6.58-6.74-10a20.46,20.46,0,0,1-1.56-2.59,121.66,121.66,0,0,0-8.9-13.25c-2.5-3.2-4.5-6.67-6.83-10-2.16-3.2-4.32-6.32-6.48-9.53a39.11,39.11,0,0,1-2.42-3.11c-2.24-3.55-4.24-7.18-6.48-10.73-1.9-2.94-4-5.8-6-8.66-.69-1-1.38-2-2.07-3a1.11,1.11,0,0,1-.18-.59c-.17-1.91-.34-3.81-.43-5.63s.17-3.46.17-5.28V74.18c0-.43.09-.78.09-1.21.08-.08.17-.26.25-.34-2.5,0-5.1-.1-7.6,0-1.64.08-2.51-.61-3.63-1.83-3.29-3.72-5.71-8-8.56-11.94-2.68-3.81-5.44-7.53-8.21-11.25-2.25-3-4.5-6-6.74-9-2.51-3.46-4.93-6.92-7.52-10.38-3.11-4.16-6.31-8.31-9.51-12.46-1.48-1.91-3.12-3.73-4.76-5.72,1.13.18,2.17.35,3.2.44l4.15.26c3.11.25,6.22.43,9.33.85,2.6.36,5.19.87,7.87,1.3a112.77,112.77,0,0,1,16.77,4.33c3.2,1,6.3,2.43,9.42,3.72a191.41,191.41,0,0,1,20.22,10c2.07,1.13,3.29,3,4.84,4.59,2.25,2.34,4.5,4.68,6.65,7.1,2.51,2.85,4.84,5.8,7.26,8.74,2.16,2.59,4.4,5.19,6.57,7.79a26.07,26.07,0,0,1,1.81,2.59c1.38,2.08,2.94,4.08,4.15,6.32a36.12,36.12,0,0,1,2,5.37c.87,2.68,1.73,5.28,2.6,8,.6,2,1.12,4.07,1.55,6.14.35,1.39.26,2.86.69,4.24.52,1.83,0,3.81.52,5.63.09.18.17.44.26.61.35.34.6.69.09,1.21-.09.08-.09.42,0,.69a3.57,3.57,0,0,0,.43-.61c0,.18.08.27.08.35a4.44,4.44,0,0,0,0,1,2.11,2.11,0,0,0,.26.61,7.25,7.25,0,0,1,.69-.53,34.29,34.29,0,0,1,.87,8.92c0,2.85.51,5.71-.69,8.48.25-.95-.35-1.82-.09-2.69Z"/><path class="cls-1" d="M187.71,149.12a.27.27,0,0,1,.17.09l-.08-.1c0-.08,0-.08-.09,0Zm13.66,85.51a8.24,8.24,0,0,1-3.12,1.55c-.09-.08-.09-.17-.18-.26,1-.6,2-1.21,2.94-1.81.09.16.27.34.35.51Zm-162-117.27c1-1.21,1.91-2.42,2.94-3.63.08.09.77.26.86.34-.95,1.22-2.25,2.86-3.2,4.16-.18-.18-.44-.78-.61-.87ZM14.77,159.77c-.69-1.47-1.38-3-2.07-4.5a2.94,2.94,0,0,1,.78-.34,29.36,29.36,0,0,1,2.07,4.49,7.18,7.18,0,0,1-.77.35Zm22.05-41.54c-.52.78-1,1.65-1.56,2.43-.09-.09-1,.34-1.12.26.51-.78,1.81-2.17,2.33-3a1.18,1.18,0,0,0,.35.27Zm155.3,120c.08,0,.08-.08.17-.08a15.37,15.37,0,0,0,2,.17c-1.13.77-1.82.69-2.17-.09ZM37,121.86a3.36,3.36,0,0,1,.44-.77,1.59,1.59,0,0,0,.42-.09c.36-.61.36-1,.7-1.56-.09-.08-.17-.08-.26-.17-.52.35-1,.78-1.56,1.13a.46.46,0,0,1,.18.43c-.69-.09-.95.27-1.3,1.21-.08.26-.52.35-1,.69-.09.18-.17.61-.35,1l.09.09a1.23,1.23,0,0,1-.43.27c-.52.51-1.12,1-1.64,1.47a2.37,2.37,0,0,0-.17.77c.6-.6,1.64-1.73,2.42-2.42l.08.09c.35-.52.61-1,1-1.56.08.09.08.17.17.26-.26.69-.52,1.47-.78,2.16-.18.09-.44.27-.44.18-.35.26-.6.6-1,.86l-1.56,1c-.86.78-1.72,1.47-2.68,2.25-.6,1-1.2,1.81-1.9,2.94,1-.26,1.3.17,1.21,1,1.21.17,1.3-.78,1.65-1.47.08-.18.17-.53.34-.61.78-.69,1.64-1.29,2.51-2a1.18,1.18,0,0,0,.17-.78c0-.08-.44-.08-.7-.17.78-.87,1.91-2.34,2.68-3.29.44-.26.87-.61.87-.87-.09-1,.52-1.21,1.21-1.55a1,1,0,0,1-.43-.61Z"/><path class="cls-1" d="M38.71,120.91c-.34.61-.69,1.13-1,1.73l-.52-.26c-.34,2-1.56,3.72-2.76,4.06a1.44,1.44,0,0,0,1,.27c.25-.09.42-.53.6-.79l2.33-3.37.78-1.3-.34-.35Zm-28.77,38c.43,0,.87.09,1.38.09,0-.35.43-.26.43-.61H12c0,.44.08.78.08,1.22H10.29c-.09-.09-.43-.61-.35-.7Zm-.69-4c-.26-.26-.69-.52-.69-.78s.17-.77.43-1.2c.17.6.26,1.12.43,1.73a.41.41,0,0,0-.17.26Zm2.16-5.54c.34.88.69,1.83,1,2.69a2.64,2.64,0,0,0-.69.35c-.35-.87-.78-1.82-1.13-2.68a2.14,2.14,0,0,1,.78-.35Zm192.38,82.74a14.36,14.36,0,0,1,1.64-.43,21,21,0,0,0-1.9,1.56c-.09-.09-.17-.18-.26-.18C203.44,232.73,203.61,232.47,203.79,232.12ZM97.56,49.26c.52-.35,1-.61,1.47-.95l.17.17c-.52.69-1,1.38-1.56,2.25-.08-.6-.08-.95-.17-1.38-.09,0,0,0,.09-.09Zm25.33,43.79c.77-.35,1.55-.69,2.5-1.13a7.18,7.18,0,0,0-.08,1.22,3.07,3.07,0,0,0-.87-.18c-.52.09-1.47.78-1.91.86-.08,0,.35-.68.35-.77Zm64.82,73.38c.17.87,1.82,1.3.17,2.16.27.18.52.27.78.44a.67.67,0,0,1-.17.35c-.18.08-.52.26-.69.17s-.26-.35-.26-.52c0-.78.08-1.56.17-2.59Z"/></svg>