<svg id="Layer_1" data-name="Layer 1" xmlns="http://www.w3.org/2000/svg" viewBox="0 0 256.01 71.66"><defs><style>.cls-1{fill:#919191;}</style></defs><title>i-love-expressjs</title><path class="cls-1" d="M0,0H38.3V3H3.51V25.83H36.22v3H3.51v25.1H38.69v3H0Z"/><path class="cls-1" d="M55.29,35.42,40.29,16h4.23L57.37,33.1,70.31,16h3.9L59.37,35.42,75.57,57H71.43L57.37,37.75,43,57H39.18Z"/><path class="cls-1" d="M83.22,25.36h.24A16.1,16.1,0,0,1,85.06,22a14.1,14.1,0,0,1,3-3.4A15.9,15.9,0,0,1,92.49,16a16.24,16.24,0,0,1,5.94-1,17.92,17.92,0,0,1,8.18,1.75,16.38,16.38,0,0,1,5.74,4.71,20.32,20.32,0,0,1,3.4,6.86,29.64,29.64,0,0,1,1.12,8.22,31.39,31.39,0,0,1-1.12,8.62,19.28,19.28,0,0,1-3.4,6.75,15.66,15.66,0,0,1-5.77,4.43,19.39,19.39,0,0,1-8.2,1.6,18.37,18.37,0,0,1-9.12-2.24,13,13,0,0,1-5.83-7.26h-.15v23.2h-3V16h3v9.38ZM98.35,55.29a15,15,0,0,0,6.93-1.51,13.5,13.5,0,0,0,4.8-4.08,17.93,17.93,0,0,0,2.81-5.94,27.42,27.42,0,0,0,.92-7.21,26.89,26.89,0,0,0-.88-6.91,19.31,19.31,0,0,0-2.72-6.07,15.09,15.09,0,0,0-18.79-4.36,13.44,13.44,0,0,0-4.67,4.23,18.05,18.05,0,0,0-2.61,6,31.06,31.06,0,0,0-.79,7.06,33.5,33.5,0,0,0,.72,7.06,17.44,17.44,0,0,0,2.43,6,12.36,12.36,0,0,0,4.65,4.14A15.11,15.11,0,0,0,98.35,55.29Z"/><path class="cls-1" d="M126.94,25.05h.24a9.94,9.94,0,0,1,2-3.75,14.42,14.42,0,0,1,3.6-3,17.18,17.18,0,0,1,4.71-2,18.47,18.47,0,0,1,5.39-.59v3a14.39,14.39,0,0,0-5.46.48,13.38,13.38,0,0,0-5.88,3.51,26,26,0,0,0-2,2.32,12.36,12.36,0,0,0-1.4,2.48,15.64,15.64,0,0,0-.88,3,24.41,24.41,0,0,0-.39,4V57h-3V16h3Z"/><path class="cls-1" d="M146.25,36.83v.48a24.18,24.18,0,0,0,1,6.86,17,17,0,0,0,2.85,5.74,13.37,13.37,0,0,0,4.71,3.9,14.36,14.36,0,0,0,6.6,1.45c4.1,0,7.37-1.07,9.76-3.22a16.91,16.91,0,0,0,5-9h3c-.9,4.78-2.85,8.46-5.88,11s-7,3.84-11.93,3.84a18.11,18.11,0,0,1-7.94-1.64,16.17,16.17,0,0,1-5.7-4.41,18.93,18.93,0,0,1-3.4-6.71,29.81,29.81,0,0,1-1.12-8.29,29.29,29.29,0,0,1,1.16-8.27,20.88,20.88,0,0,1,3.46-6.95,16.89,16.89,0,0,1,5.8-4.78A17.56,17.56,0,0,1,161.8,15a17.19,17.19,0,0,1,7.63,1.6,16.28,16.28,0,0,1,5.57,4.3,19.64,19.64,0,0,1,3.4,6.38,25.34,25.34,0,0,1,1.16,7.78v1.75Zm30.17-2.63a24.9,24.9,0,0,0-1.12-6.34,15.22,15.22,0,0,0-2.85-5.26A14.51,14.51,0,0,0,167.89,19a13.52,13.52,0,0,0-6.12-1.36,14.28,14.28,0,0,0-6.49,1.4,14.51,14.51,0,0,0-4.71,3.66,16.72,16.72,0,0,0-3,5.31,24.13,24.13,0,0,0-1.27,6.23Z"/><path class="cls-1" d="M188,43.32a12.69,12.69,0,0,0,1.27,5.06,12,12,0,0,0,2.92,3.75,12.3,12.3,0,0,0,4.19,2.35,16.41,16.41,0,0,0,5.2.79,26.76,26.76,0,0,0,4.28-.35,15,15,0,0,0,4.23-1.32,8.67,8.67,0,0,0,3.22-2.67,7,7,0,0,0,1.27-4.34,6.47,6.47,0,0,0-2.08-5.2,14.73,14.73,0,0,0-5.22-2.72,52.28,52.28,0,0,0-6.77-1.56,33.81,33.81,0,0,1-6.77-1.8,13.55,13.55,0,0,1-5.22-3.4c-1.38-1.47-2.08-3.6-2.08-6.42a9,9,0,0,1,1.36-5.06,10.07,10.07,0,0,1,3.46-3.22A15.75,15.75,0,0,1,196,15.5a26.51,26.51,0,0,1,5.26-.53,23.8,23.8,0,0,1,6,.72A13,13,0,0,1,212.08,18a11.19,11.19,0,0,1,3.2,4.08,14.06,14.06,0,0,1,1.16,6h-3a11.23,11.23,0,0,0-.92-4.78A8.25,8.25,0,0,0,210,20.09a11,11,0,0,0-3.88-1.84,18.8,18.8,0,0,0-4.78-.59,22.61,22.61,0,0,0-4.19.39,12.2,12.2,0,0,0-3.79,1.36,8.57,8.57,0,0,0-2.8,2.42,7,7,0,0,0,.13,7.65,8.55,8.55,0,0,0,3.16,2.43,21.09,21.09,0,0,0,4.38,1.47l4.91,1.12c2,.37,3.92.81,5.7,1.32a15.82,15.82,0,0,1,4.63,2.08,9.55,9.55,0,0,1,3.07,3.4,11,11,0,0,1,1.12,5.26,9.31,9.31,0,0,1-1.51,5.5,11.38,11.38,0,0,1-3.84,3.46,16.28,16.28,0,0,1-5.15,1.84,30.42,30.42,0,0,1-5.55.53,22.08,22.08,0,0,1-6.51-.92,14.63,14.63,0,0,1-5.22-2.78,13.34,13.34,0,0,1-3.51-4.58A15.56,15.56,0,0,1,185,43.34h3Z"/><path class="cls-1" d="M226.36,43.32a12.69,12.69,0,0,0,1.27,5.06,12,12,0,0,0,2.92,3.75,12.3,12.3,0,0,0,4.19,2.35,16.41,16.41,0,0,0,5.2.79,26.76,26.76,0,0,0,4.28-.35,15,15,0,0,0,4.23-1.32,8.67,8.67,0,0,0,3.22-2.67,7,7,0,0,0,1.27-4.34,6.47,6.47,0,0,0-2.08-5.2,14.73,14.73,0,0,0-5.22-2.72,52.28,52.28,0,0,0-6.77-1.56,33.81,33.81,0,0,1-6.77-1.8,13.55,13.55,0,0,1-5.22-3.4c-1.38-1.47-2.08-3.6-2.08-6.42a9,9,0,0,1,1.36-5.06,10.07,10.07,0,0,1,3.46-3.22,15.87,15.87,0,0,1,4.76-1.71,26.51,26.51,0,0,1,5.26-.53,23.8,23.8,0,0,1,6,.72A13,13,0,0,1,250.46,18a11.19,11.19,0,0,1,3.2,4.08,14.06,14.06,0,0,1,1.16,6h-3a11.23,11.23,0,0,0-.92-4.78,8.25,8.25,0,0,0-2.54-3.22,11,11,0,0,0-3.88-1.84,18.8,18.8,0,0,0-4.78-.59,22.61,22.61,0,0,0-4.19.39,12.2,12.2,0,0,0-3.79,1.36,8.54,8.54,0,0,0-2.82,2.42,7,7,0,0,0,.1,7.7A8.55,8.55,0,0,0,232.16,32a21.09,21.09,0,0,0,4.38,1.47l4.91,1.12c2,.37,3.92.81,5.7,1.32A15.82,15.82,0,0,1,251.78,38a9.55,9.55,0,0,1,3.07,3.4A11,11,0,0,1,256,46.61a9.31,9.31,0,0,1-1.51,5.5,11.38,11.38,0,0,1-3.84,3.46,16.28,16.28,0,0,1-5.15,1.84,30.42,30.42,0,0,1-5.55.53,22.08,22.08,0,0,1-6.51-.92,14.63,14.63,0,0,1-5.22-2.78,13.34,13.34,0,0,1-3.51-4.58,15.6,15.6,0,0,1-1.36-6.31h3Z"/></svg>