<svg id="Layer_1" data-name="Layer 1" xmlns="http://www.w3.org/2000/svg" viewBox="0 0 189.83 256"><defs><style>.cls-1{fill:#7f7f7f;}.cls-2{fill:#6c6c6c;}.cls-3{fill:#959595;}.cls-4{fill:#a3a3a3;}.cls-5{fill:#222;}</style></defs><title>i-love-grunt</title><g id="Layer_1-2" data-name="Layer 1-2"><path class="cls-1" d="M12.24,62.28s4.36,16.87,5,22.51S6,103,6,109.25s2.52,17.48,16.3,23.14,15.68,20,15.68,28.8-5,25.7-5,25.7-3.14,42,13.76,49.45,13.16,7.46,16.88,7.46,31.31,11.32,47.61,6.88,20.62-9.4,20.62-9.4,16.3,1.22,21.34-13.16,8.18-44.47,6.28-58.23-4.5-31.9,6.84-38.22,23.14-13.76,21.34-20-12-15.06-12-15.06-2.52-15.68-.62-19.42,13.16-13.16,6.88-20-17.48-6.88-17.48-6.88L150,51.54s-24.46-22-56.4-20.62a84.82,84.82,0,0,0-52,20.66s-10.64-3.74-20,0S10.34,51.68,12.24,62.28Z"/><path class="cls-2" d="M69.47,155.47S57.1,174.41,48,187.85C46.62,190,57.1,190,57.1,190Z"/><path class="cls-2" d="M75.35,116.23s-3.74,9.3-5.82,14.28c-2.24,5.34-10.69,8-10.69,8s4.36-4.58,4.36-16.3c0-4.88,6.33-6.88,6.33-6.88Z"/><path class="cls-2" d="M71.61,121.49s-7.62,9.08-21.85,4-15.68-23.3-15.68-28.42,27,5.1,30.63,7.28S75.19,115.29,71.61,121.49Z"/><path class="cls-2" d="M17.9,24s13.16-2.52,21.86,4.36S51.08,40.74,51.08,40.74L36.32,52.58a19,19,0,0,1-9.4-12.76C24.78,30.28,26.24,26,17.9,24Z"/><path class="cls-2" d="M67.73,95.11a30.4,30.4,0,0,0-22.39-12c-12.68-1-18.72,3.52-18.72,3.52s20.78.9,26.74,8.72c11.15,14.68,27.43,15.8,30,12.6-3,.16-6.34-1.38-9.86-4.66A59.9,59.9,0,0,1,67.73,95.11Z"/><path class="cls-2" d="M32.74,123.57s-23.08-8-18.66-16,.9-12.38.9-12.38S2.06,104.75,5.34,115c2,6.28,5.44,10.76,24,19.5,9,16.52,1.84,46.32,2.3,46.44s12.54-5.82,11.7-33.72C43,138.65,42.36,127.05,32.74,123.57Z"/><path class="cls-2" d="M62.92,38.36C53.28,43.24,40,50.12,40,50.12l5.2,2.58a11.47,11.47,0,0,0-.78,1.3l5.34,2.46S62.92,66,70.77,72C68.09,63.82,60.3,50.9,60.3,50.9A14.25,14.25,0,0,1,62.92,38.36Z"/><path class="cls-2" d="M94.91,238.34c-29.74,0-39.71-15.06-39.71-15.06l4.66,11.32c1.74,4.88,20.49,20.1,35.07,20.1"/><path class="cls-2" d="M58.46,213.12s2.74,16.74,13.67,16.74c9.3,0,12-14.12,12-17Z"/><path class="cls-2" d="M40.3,188a121.84,121.84,0,0,0,5.5-23.3,270.23,270.23,0,0,0,.84-29s-2.9,11.32-5.5,13.16-7.28,14.22-7.28,14.22-2.52,18.48-3.74,24.7C33.4,188.25,36.22,186.27,40.3,188Z"/><path class="cls-2" d="M13.86,114.83s6.18-2.24,8-15.68A60,60,0,0,0,19.64,74S20,92.55,17.8,96.23s-4,4.76-6.56,9.5S12.4,113.37,13.86,114.83Z"/><path class="cls-3" d="M21.26,27.32,20,26.54C16.28,26.6,21.26,27.32,21.26,27.32Z"/><path class="cls-1" d="M68,34.32A14.88,14.88,0,0,1,59.16,29,30.16,30.16,0,0,0,34.8,15.78,111.55,111.55,0,0,0,8.58,19.3L20,26.48h6.78C41,26.94,43.26,41.1,43.26,41.1l50.35-6.9"/><path class="cls-4" d="M72.91,112.31a19.73,19.73,0,0,1-17.25,4.58c-10.48-2.24-16.8-6.78-17.26-14.84s2.24-11.16,2.24-11.16,11.7,3.66,17.26,8.46S67.41,112,72.91,112.31Z"/><path class="cls-3" d="M64.59,110a18.91,18.91,0,0,1-12.53.54,14,14,0,0,1-9.24-11.84s-5.26,15.58,9.56,18.56a21.78,21.78,0,0,0,18.93-4.5Z"/><path class="cls-5" d="M68.79,31c-.62-13.38,10.32-24,14-24.46.22,2.3-.22,11.08,3.58,13.76C87.51,13.16,91.25,5.2,106,0a24.59,24.59,0,0,0,.92,18.66c10-9.08,16.8-7.62,16.8-7.62s-6.94,12-4.26,20C99.21,29.52,68.91,33.2,68.79,31Z"/><path class="cls-5" d="M26,51.36c-4.82-4-1.22-7.72-1.62-12.22a14.71,14.71,0,0,0-1.22-6c-4.42-7-14.9-9.14-15-9.14L3.32,23l3.3-3.8a34.61,34.61,0,0,1,34.3-6.56c14.5,4.66,25.19,20.5,25.57,21.1l-7.27,3.42c0-.16-8.56-15-20.94-18.94A32,32,0,0,0,15,20,27.32,27.32,0,0,1,28,30a19.12,19.12,0,0,1,2,8.56c.3,4,.62,7.72,3.58,10.14Z"/><path class="cls-5" d="M13.08,109.63s6-7.5,7.88-22.18c.68-5.72-.54-17.14-2.52-21.56a87.39,87.39,0,0,1-2.36,21.56S14.24,107.49,13.08,109.63Z"/><path class="cls-5" d="M45.1,43.8s-2-8.46-7.34-12.84c-7.56-6-16.88-2.82-17-2.82L19.42,24a24.83,24.83,0,0,1,20.84,3.36c9.86,6.88,11,13.16,11.16,13.9Z"/><path class="cls-5" d="M32.18,104.29a15.58,15.58,0,0,1-2.58-9.56,7.08,7.08,0,0,1,3.52-5.88c3.82-1.68,5.5,2.68,5.5,2.68S33.18,92.75,32.18,104.29Z"/><path class="cls-5" d="M67.11,111.25a1.63,1.63,0,0,1,.22.38s-10,7.5-20.09,0c-5.44-4-5-14-3.3-18.32A32.88,32.88,0,0,1,55,98c-4-3.42-7.28-6-7.28-6.1l-4.42-1.22-8.56-3c0,.68-3.2,15.36,5.82,25.38,4,4.42,22.78,14.36,31.69-2.58Z"/><path class="cls-5" d="M66.17,112.31c5.6,8.46,19.72,3.66,19.5-5.34,0,0-9.4,5.2-17.72-4.36-4.87-5.6-20.39-21-41.55-16C40.92,90,60.24,103.23,66.17,112.31Z"/><path class="cls-5" d="M24.32,136.27a16.57,16.57,0,0,1,6.1,13.06,273.75,273.75,0,0,1-2.24,33.48c2.74,1.74,4.66,2.14,7.4,4a331.47,331.47,0,0,0,2-39.72A21.08,21.08,0,0,0,27.94,130l-4.2-2.3c-7.36-4-15.1-8.18-15.1-15.28a9.59,9.59,0,0,1,4.42-9.08l.22-.22a13.63,13.63,0,0,0,4.26-4.88c2.74-6.28,3.2-22,0-26.14-1.62-2-5.88-8.79-4.66-13.27a6,6,0,0,1,3.36-4,16.15,16.15,0,0,1,7.56-1.46,58.15,58.15,0,0,1,16.42,3c12.54,4,27.65,15.51,32,18.87a.52.52,0,0,1,.22.16l2.74,2-1.74-2.9c0-.16-11.07-18.25-30.79-24.91A61.82,61.82,0,0,0,24,46a24.09,24.09,0,0,0-11.08,2.32,13.4,13.4,0,0,0-7,8.46C3.42,65.85,11.48,76,11.76,76.33c.9,1.68,1.38,13.9-.84,18.82a7.75,7.75,0,0,1-2.14,2.24l-1.06.84C4.64,100.53,0,104.05,0,112.13c0,11.08,11.24,17,20.16,21.86C21.64,134.81,23.1,135.59,24.32,136.27Z"/><path class="cls-5" d="M26,51.36c-4.82-4-1.22-7.72-1.62-12.22a14.71,14.71,0,0,0-1.22-6c-4.42-7-14.9-9.14-15-9.14L3.32,23l3.3-3.8a34.61,34.61,0,0,1,34.3-6.56c14.5,4.66,25.19,20.5,25.57,21.1l-7.27,3.42c0-.16-8.56-15-20.94-18.94A32,32,0,0,0,15,20,27.32,27.32,0,0,1,28,30a19.12,19.12,0,0,1,2,8.56c.3,4,.62,7.72,3.58,10.14Z"/><path class="cls-5" d="M25.84,52.2l-.28-.2c-3.58-3-2.9-5.88-2.3-8.72a12.29,12.29,0,0,0,.46-4,16.56,16.56,0,0,0-1.06-5.66c-4.2-6.66-14.44-8.8-14.52-8.8L2,23.6l4-4.72A33.79,33.79,0,0,1,29.14,10a39.82,39.82,0,0,1,12,2C56.2,16.88,67,33.24,67,33.4l.46.68-8.63,4-.3-.54c-.9-1.62-9-15-20.56-18.66a29,29,0,0,0-8.86-1.38A32.86,32.86,0,0,0,16.92,20a26.58,26.58,0,0,1,11.84,9.64,20,20,0,0,1,2.16,9c.3,3.82.62,7.5,3.3,9.7l1,.84Z"/><path class="cls-5" d="M45.1,43.8s-2-8.46-7.34-12.84c-7.56-6-16.88-2.82-17-2.82L19.42,24a24.83,24.83,0,0,1,20.84,3.36c9.86,6.88,11,13.16,11.16,13.9Z"/><path class="cls-5" d="M44.56,44.8,44.4,44s-2-8.24-7.12-12.38A16.36,16.36,0,0,0,26.76,28a19.75,19.75,0,0,0-5.72.84l-.68.22-1.84-5.6.68-.22a25.2,25.2,0,0,1,7.12-1,24.64,24.64,0,0,1,14.36,4.42C50.68,33.78,52,40.26,52.06,41v.54ZM26.74,26.6a18.25,18.25,0,0,1,11.48,3.82c4.58,3.66,6.72,10,7.4,12.38l5-2c-.46-1.74-2.46-7-10.7-12.84a23.51,23.51,0,0,0-13.6-4.2,26.93,26.93,0,0,0-6,.68l.9,2.74a26,26,0,0,1,5.56-.58Z"/><path class="cls-5" d="M71.67,225.8h0a9.06,9.06,0,0,1-5.88-2.14,27,27,0,0,1-6.87-9.08,3.34,3.34,0,0,1,.46-4,6.31,6.31,0,0,1,4.75-1.46H78.81a6.26,6.26,0,0,1,4.42,1.3,3.09,3.09,0,0,1,.46,3.36,37.55,37.55,0,0,1-6.5,9.7A7.17,7.17,0,0,1,71.67,225.8Z"/><path class="cls-5" d="M74,112.87l-7.78-.54a42.92,42.92,0,0,1,3.3,8c1.46,5.1-1.3,12.6-1.3,12.6S78.49,121.27,74,112.87Z"/><path class="cls-5" d="M64.27,246.34C36.6,244.22,26.92,218,26.92,212.56h7.2c0,2.36,7.4,24.76,30.79,26.5Z"/><path class="cls-4" d="M56.48,199.44a17.72,17.72,0,0,1,0-7.18c-2.14-1.61-5.88-2.13-8.72-3.07-2.3-1.46-14.12,1.52-22.78-9-10.76-13.06-8.46-20.78-8.46-20.78-2.74,3.08-5.44,2-9.64,16.2S8.92,200,20.44,210c5.44,4.76,13.16,6.66,19.78,7.4-2.24-2.24,3.82-2.46,8-4a11.28,11.28,0,0,1,2.7-9.22,14,14,0,0,1,5.44-3.3,3.46,3.46,0,0,1,.3-.78A1.4,1.4,0,0,1,56.48,199.44Z"/><path class="cls-3" d="M48.08,213.24c-.22-.68-.46-1.46-.62-2.14s-1.14-3.08,0-.46a6.37,6.37,0,0,1-.62-2c-18.72,0-35-12.84-31.88-39.87-2.46-3.3-5.88,6.56-5.88,6.56s-9.4,27.21,14.84,37.75c8,3.52,15.2,6,16.88,5a8.62,8.62,0,0,0,7.88-3.36A13.33,13.33,0,0,1,48.08,213.24Z"/><path class="cls-5" d="M56.1,195.54a14,14,0,0,1,1.62-6.71c0-.16.16-.3.22-.46a64.14,64.14,0,0,1-22.52-3.58c-7.78-3.14-17.48-13.76-19.1-26.22,0,0-14.62,11.32-10.32,35.39,4,22.7,23,30,44.64,31.32,0-.16-2.46-5.2-1.68-8.24-12.32.9-26-3.82-32.64-14.74-6-10-4.36-27.05-2-29.51C20.48,192,42.42,195.82,56.1,195.54Z"/><path class="cls-5" d="M58.4,181.81a72,72,0,0,1-11.84,20.61s10.92-.54,11.54-2.46a228.25,228.25,0,0,0,13.51-49.35C68.17,156.31,58.72,180.83,58.4,181.81Z"/><path class="cls-2" d="M120.29,155.47s12.38,18.94,21.46,32.38c1.38,2-9.08,2.24-9.08,2.24Z"/><path class="cls-2" d="M114.41,116.23s3.74,9.3,5.82,14.28c2.24,5.34,10.7,8,10.7,8s-4.38-4.52-4.38-16.28c0-4.88-6.34-6.88-6.34-6.88Z"/><path class="cls-2" d="M118.15,121.49s7.62,9.08,21.86,4,15.68-23.3,15.68-28.42-27,5.1-30.64,7.28S114.49,115.29,118.15,121.49Z"/><path class="cls-2" d="M171.87,24S158.71,21.48,150,28.36s-11.32,12.38-11.32,12.38l14.74,11.7a19,19,0,0,0,9.3-12.76C164.91,30.28,163.47,26,171.87,24Z"/><path class="cls-2" d="M122,95.11a30.44,30.44,0,0,1,22.4-12c12.68-1,18.72,3.52,18.72,3.52s-20.78.9-26.74,8.72c-11.16,14.68-27.44,15.8-30,12.6,3,.16,6.34-1.38,9.86-4.66A53.56,53.56,0,0,0,122,95.11Z"/><path class="cls-2" d="M157.07,123.57s23.08-8,18.66-16-.9-12.38-.9-12.38,12.84,9.64,9.56,19.78c-2,6.28-5.44,10.76-24,19.5-9,16.52-1.84,46.32-2.3,46.44s-12.54-5.82-11.7-33.72C146.73,138.65,147.43,127.05,157.07,123.57Z"/><path class="cls-2" d="M126.91,38.36c9.64,4.88,22.92,11.76,22.92,11.76l-5.2,2.58c.28.42.54.85.78,1.3l-5.34,2.46S126.91,66,118.91,72c2.68-8.17,10.48-21.09,10.48-21.09A14.12,14.12,0,0,0,126.91,38.36Z"/><path class="cls-2" d="M94.91,238.34c29.74,0,39.72-15.06,39.72-15.06l-4.72,11.3c-1.74,4.88-20.5,20.1-35.08,20.1"/><path class="cls-2" d="M131.25,213.12s-2.74,16.74-13.68,16.74c-9.3,0-12-14.12-12-17Z"/><path class="cls-2" d="M149.51,188a121.1,121.1,0,0,1-5.5-23.3,265.14,265.14,0,0,1-.84-29s2.9,11.32,5.5,13.16S156,163.05,156,163.05s2.52,18.48,3.74,24.7C156.35,188.25,153.55,186.27,149.51,188Z"/><path class="cls-2" d="M176,114.83s-6.18-2.24-8-15.68A60,60,0,0,1,170.15,74s-.38,18.56,1.84,22.24,4,4.76,6.56,9.48S177.37,113.37,176,114.83Z"/><path class="cls-3" d="M168.51,27.32l1.3-.78C173.49,26.6,168.51,27.32,168.51,27.32Z"/><path class="cls-1" d="M121.83,34.32a14.87,14.87,0,0,0,8.8-5.34,30.14,30.14,0,0,1,24.28-13.2,111.55,111.55,0,0,1,26.22,3.52l-11.38,7.18H163c-14.28.46-16.52,14.62-16.52,14.62L96.17,34.2"/><path class="cls-4" d="M116.91,112.31a19.75,19.75,0,0,0,17.26,4.58c10.48-2.2,16.8-6.78,17.26-14.84s-2.24-11.16-2.24-11.16-11.7,3.66-17.26,8.46S122.29,112,116.91,112.31Z"/><path class="cls-3" d="M125.19,110a18.94,18.94,0,0,0,12.54.54,14,14,0,0,0,9.18-11.86s5.26,15.58-9.56,18.56a21.81,21.81,0,0,1-18.94-4.5Z"/><path class="cls-5" d="M163.79,51.36c4.82-4,1.22-7.72,1.62-12.22a14.55,14.55,0,0,1,1.22-6c4.4-7,14.86-9.12,15-9.18l4.88-1-3.28-3.76a34.73,34.73,0,0,0-34.4-6.56c-14.44,4.66-25.14,20.5-25.54,21.1l7.28,3.42c0-.16,8.56-15,20.94-18.94A32,32,0,0,1,174.71,20a27.22,27.22,0,0,0-13,10,19,19,0,0,0-2,8.56c-.3,4-.68,7.72-3.58,10.14Z"/><path class="cls-5" d="M176.63,109.63s-6-7.5-7.88-22.18c-.68-5.72.54-17.14,2.52-21.56a87.39,87.39,0,0,0,2.36,21.56S175.55,107.49,176.63,109.63Z"/><path class="cls-5" d="M144.69,43.8s2-8.46,7.34-12.84c7.56-6,16.88-2.82,17-2.82L170.37,24a24.83,24.83,0,0,0-20.84,3.36c-9.86,6.88-11,13.16-11.16,13.9Z"/><path class="cls-5" d="M157.59,104.29a15.64,15.64,0,0,0,2.58-9.56,7.23,7.23,0,0,0-3.42-5.88c-3.82-1.68-5.5,2.68-5.5,2.68S156.59,92.75,157.59,104.29Z"/><path class="cls-5" d="M122.67,111.25a2.08,2.08,0,0,0-.22.38s10,7.5,20.1,0c5.44-4,5-14,3.3-18.32A32.89,32.89,0,0,0,134.77,98c4-3.42,7.28-6,7.28-6.1l4.42-1.22,8.56-3c0,.68,3.2,15.36-5.82,25.38-4,4.42-22.78,14.36-31.7-2.58Z"/><path class="cls-5" d="M123.59,112.31c-5.6,8.46-19.72,3.66-19.5-5.34,0,0,9.4,5.2,17.72-4.36,4.88-5.6,20.5-21,41.56-16C148.91,90,129.57,103.23,123.59,112.31Z"/><path class="cls-5" d="M165.37,136.27a16.54,16.54,0,0,0-6.1,13.06,273.75,273.75,0,0,0,2.24,33.48c-2.74,1.74-4.66,2.14-7.4,4a329.41,329.41,0,0,1-2-39.72,21.05,21.05,0,0,1,9.64-17.1l4.2-2.3c7.4-4,15.12-8.18,15.12-15.28a9.63,9.63,0,0,0-4.42-9.08l-.22-.22a13.44,13.44,0,0,1-4.26-4.88c-2.74-6.28-3.2-22,0-26.14,1.62-2,5.88-8.79,4.66-13.27a6,6,0,0,0-3.36-4,16.15,16.15,0,0,0-7.56-1.46,58.09,58.09,0,0,0-16.42,3c-12.44,4-27.58,15.51-32,18.87a.6.6,0,0,0-.22.16l-2.74,2,1.74-2.9c0-.16,11.08-18.25,30.8-24.91A61.91,61.91,0,0,1,165.83,46a24.12,24.12,0,0,1,11.08,2.32,13.46,13.46,0,0,1,7,8.46c2.46,9.07-5.6,19.25-5.88,19.55-.9,1.68-1.38,13.9.84,18.82a7.62,7.62,0,0,0,2.14,2.24l1.06.84c3.08,2.3,7.72,5.82,7.72,13.9,0,11.08-11.24,17-20.16,21.86C168.05,134.81,166.69,135.59,165.37,136.27Z"/><path class="cls-5" d="M152,50c-1.74-3.08-6.34-8.86-16.8-14a91.24,91.24,0,0,0-40.32-8.56h0A91.21,91.21,0,0,0,54.54,36c-10.48,5.1-15.06,10.92-16.8,14L37,51l9,2,.3-.38.16-.3c.16-.62,1.38-3.82,11.38-8.72a84.35,84.35,0,0,1,37.09-7.86,84.41,84.41,0,0,1,37.14,7.88c10,4.88,11.24,8.12,11.38,8.72l.16.3.3.38,9-2Z"/><path class="cls-5" d="M163.79,51.36c4.82-4,1.22-7.72,1.62-12.22a14.55,14.55,0,0,1,1.22-6c4.4-7,14.86-9.12,15-9.18l4.88-1-3.28-3.76a34.73,34.73,0,0,0-34.4-6.56c-14.44,4.66-25.14,20.5-25.54,21.1l7.28,3.42c0-.16,8.56-15,20.94-18.94A32,32,0,0,1,174.71,20a27.22,27.22,0,0,0-13,10,19,19,0,0,0-2,8.56c-.3,4-.68,7.72-3.58,10.14Z"/><path class="cls-5" d="M154.55,49.06l1-.84c2.68-2.22,3-5.88,3.36-9.7a19,19,0,0,1,2.24-9A27.6,27.6,0,0,1,172.91,20a32.53,32.53,0,0,0-12.38-2.52,28,28,0,0,0-8.86,1.38C140.19,22.6,132,36,131.11,37.52l-.38.54-8.46-4,.46-.68c0-.16,10.86-16.52,25.9-21.4a39.77,39.77,0,0,1,12-2,34,34,0,0,1,23.14,8.72l4,4.76-6.1,1.16s-10.32,2.14-14.52,8.8a14.82,14.82,0,0,0-1.06,5.66,11.77,11.77,0,0,0,.46,4c.62,2.82,1.22,5.72-2.3,8.72L164,52Z"/><path class="cls-5" d="M144.69,43.8s2-8.46,7.34-12.84c7.56-6,16.88-2.82,17-2.82L170.37,24a24.83,24.83,0,0,0-20.84,3.36c-9.86,6.88-11,13.16-11.16,13.9Z"/><path class="cls-5" d="M137.57,41.72v-.54c0-.68,1.38-7.28,11.38-14.36a24.71,24.71,0,0,1,14.36-4.42,22.06,22.06,0,0,1,7.12,1l.68.22-1.84,5.6-.68-.22a19.58,19.58,0,0,0-5.68-.84,16.74,16.74,0,0,0-10.54,3.52c-5.1,4.14-7,12.32-7.1,12.32l-.16.84ZM168.51,27.3l.9-2.74a23.82,23.82,0,0,0-6-.68A22.65,22.65,0,0,0,150,28c-8.24,6-10.24,11.18-10.7,12.92l5,2c.68-2.3,2.82-8.72,7.4-12.38a18,18,0,0,1,11.48-3.82,17,17,0,0,1,5.4.6Z"/><path class="cls-5" d="M112.49,223.6A36.72,36.72,0,0,1,106,214a3.05,3.05,0,0,1,.46-3.36,6.29,6.29,0,0,1,4.42-1.3h14.68a6.47,6.47,0,0,1,4.76,1.46,3.6,3.6,0,0,1,.46,4,25.08,25.08,0,0,1-6.88,9.08A9.41,9.41,0,0,1,118,226h0A8.42,8.42,0,0,1,112.49,223.6Z"/><path class="cls-5" d="M115.79,112.87l7.78-.54a43.61,43.61,0,0,0-3.3,8c-1.46,5.1,1.3,12.6,1.3,12.6S111.27,121.27,115.79,112.87Z"/><path class="cls-2" d="M94.91,85c-5,0-11.38-.16-16.3-3.58,0,0,6.34,11.16,16.3,11.16h0c10,0,16.3-11.16,16.3-11.16C106.23,84.87,99.83,85,94.91,85Z"/><path class="cls-5" d="M108.51,85a27,27,0,0,1-13.6,4.14A26.48,26.48,0,0,1,81.23,85s7.28,8.86,13.6,9h0C101.27,93.83,108.51,85,108.51,85Z"/><path class="cls-5" d="M125.49,246.34l-.58-7.16c23.36-1.84,30.7-24.14,30.7-26.5h7.3C162.91,218,153.15,244.22,125.49,246.34Z"/><path class="cls-4" d="M133.27,199.44a17.72,17.72,0,0,0,0-7.18c2.14-1.61,5.88-2.13,8.72-3.07,2.3-1.46,14.22,1.52,22.78-9,10.76-13.06,8.46-20.78,8.46-20.78,2.74,3.08,5.44,2,9.64,16.2s-2,24.33-13.56,34.33c-5.44,4.76-13.16,6.66-19.78,7.4,2.24-2.24-3.82-2.46-8-4a11.28,11.28,0,0,0-2.62-9.22,14.11,14.11,0,0,0-5.44-3.3,3.46,3.46,0,0,0-.3-.78A4.49,4.49,0,0,0,133.27,199.44Z"/><path class="cls-3" d="M141.61,213.24c.22-.68.46-1.46.62-2.14s1.14-3.08,0-.46a6.65,6.65,0,0,0,.62-2c18.72,0,35-12.84,31.88-39.87,2.46-3.3,5.88,6.56,5.88,6.56s9.4,27.21-14.84,37.75c-8,3.52-15.2,6-16.88,5a8.6,8.6,0,0,1-8-3.32A6.26,6.26,0,0,0,141.61,213.24Z"/><path class="cls-5" d="M133.61,195.54a14,14,0,0,0-1.62-6.71c0-.16-.16-.3-.22-.46a64.14,64.14,0,0,0,22.52-3.58c7.82-3.14,17.52-13.76,19.14-26.22,0,0,14.62,11.32,10.32,35.39-4,22.7-23,30-44.64,31.32,0-.16,2.46-5.2,1.68-8.24,12.32.9,26-3.82,32.64-14.74,6-10,4.36-27.05,1.84-29.51C169.29,192,147.33,195.82,133.61,195.54Z"/><path class="cls-5" d="M142.39,201.2c-2.58-2.82-7.34-6.1-18.26-6.1H65.75c-10.91,0-15.73,3.36-18.25,6.1-3.74,4-4.36,9.7-1.74,16.8C52.7,236.82,62.4,256,95,256h0c32.54,0,42.34-19.16,49.22-38C146.73,211,146.15,205.32,142.39,201.2Zm-5.14,15.52C134,226.2,125.09,249,94.85,249.1s-39.11-22.92-42.39-32.38c-1.84-5.26-1.68-9.08.46-11.54,1.46-1.68,4.76-3.58,12.31-3.58h59.36c7.56,0,10.86,2,12.32,3.58,2,2.34,2.18,6.26.34,11.52Z"/><path class="cls-5" d="M131.37,181.81a72,72,0,0,0,11.84,20.61s-10.92-.54-11.54-2.46a228.27,228.27,0,0,1-13.52-49.35C121.61,156.31,130.91,180.83,131.37,181.81Z"/></g></svg>