<svg id="Layer_1" data-name="Layer 1" xmlns="http://www.w3.org/2000/svg" viewBox="0 0 256 188.8"><defs><style>.cls-1{fill:#595959;}</style></defs><title>i-love-adobecc</title><path class="cls-1" d="M256,90.2v8.42a10.77,10.77,0,0,1-.24,1.36c-.44,3.66-.72,7.36-1.32,11A90,90,0,0,1,242,144a93.76,93.76,0,0,1-38.88,35.24,91,91,0,0,1-30,8.86l-7.12.74H76a10.46,10.46,0,0,0-1.36-.24,76.66,76.66,0,0,1-26.1-6.28A79.61,79.61,0,0,1,8.22,143.84,75.51,75.51,0,0,1,.76,119c-.25-2.11-.51-4.21-.76-6.3V104.4A10.46,10.46,0,0,0,.24,103,75.16,75.16,0,0,1,5.16,80.4,79.6,79.6,0,0,1,45,36.4a78.13,78.13,0,0,1,31.22-8,86.5,86.5,0,0,1,16,.74,2,2,0,0,0,1.52-.5A95,95,0,0,1,120,9.66,91.67,91.67,0,0,1,150.14.78c2.48-.28,5-.52,7.46-.78h7.66l1.5.22c3.8.44,7.62.72,11.38,1.36A90.15,90.15,0,0,1,210.92,14a93.77,93.77,0,0,1,35.4,39,90.55,90.55,0,0,1,8.86,30c.28,2.4.5,4.8.76,7.2M112.86,35.66c.16.2.2.3.26.32a102.68,102.68,0,0,1,15,9.1,1.57,1.57,0,0,0,1.4-.1A59.08,59.08,0,0,1,208.14,58.5,55.9,55.9,0,0,1,219.72,104a58.37,58.37,0,0,1-14.2,30c-14,15.52-31.7,22-52.44,19.22a55.37,55.37,0,0,1-32.92-16.4c-11.72-11.84-23.5-23.58-35.24-35.38a9.53,9.53,0,0,0-5.56-3.08,8.85,8.85,0,0,0-9.22,5,8.17,8.17,0,0,0,2,10c13.1,12.86,26,25.82,39.16,38.7a63.4,63.4,0,0,0,7.18,6.12,68.77,68.77,0,0,0,32,12.32,76.78,76.78,0,0,0,86-90.52,73.47,73.47,0,0,0-17.28-35.42c-17.24-19.36-39-28-64.78-26a71.87,71.87,0,0,0-28.18,8.28,74,74,0,0,0-13.38,8.92M106.58,171l-1.06-1c-5.36-5.06-10.74-10-16-15.2a4.32,4.32,0,0,0-3.52-1.6,64.53,64.53,0,0,1-16-1A44.79,44.79,0,0,1,87.8,64.4,43.38,43.38,0,0,1,112,77c8.2,8.48,16.66,16.7,24.94,25.08a7.45,7.45,0,0,0,6.68,2.4,8.37,8.37,0,0,0,7.3-5.4,8,8,0,0,0-1.86-8.86C140.42,81.44,132,72.4,122.86,64,105.3,47.58,84.58,42.7,61.68,49.68A62.1,62.1,0,0,0,80.58,171h26"/></svg>