<svg id="Layer_1" data-name="Layer 1" xmlns="http://www.w3.org/2000/svg" viewBox="0 0 226.25 256"><defs><style>.cls-1{fill:#5a5a5a;}.cls-2{fill:#262626;}.cls-3{fill:#141414;}</style></defs><title>i-love-webpack</title><path class="cls-1" d="M113.12,0,226.25,64V192L113.12,256,0,192V64Z"/><path class="cls-2" d="M206.06,187.57l-89.18,50.5V198.8l55.58-30.61Zm6.1-5.51V76.54L179.55,95.37v67.87ZM19.85,187.57,109,238V198.76L53.45,168.19Zm-6.1-5.51V76.54L46.36,95.37v67.87ZM17.54,69.71,109,18V56L50.41,88.19l-.47.26L17.54,69.71Zm190.78,0L116.88,18V56l58.57,32.28.47.25,32.4-18.78Z"/><path class="cls-3" d="M109,189.83,54.21,159.65V99.93L109,131.56Zm7.85,0,54.81-30.13V99.93l-54.81,31.63ZM57.88,93,113,62.75,168,93l-55,31.76Z"/></svg>