<svg id="Layer_1" data-name="Layer 1" xmlns="http://www.w3.org/2000/svg" viewBox="0 0 256 192.02"><defs><style>.cls-1{fill:#595959;}</style></defs><title>i-love-sass</title><path class="cls-1" d="M220.45,110.38a53.53,53.53,0,0,0-23.19,5.37c-2.39-4.73-4.79-8.93-5.19-12a32,32,0,0,1-.46-10,85.26,85.26,0,0,1,3.06-10.88c0-.46-.54-2.68-5.7-2.72s-9.58,1-10,2.34A53.2,53.2,0,0,0,176.74,90c-.88,4.68-10.3,21.39-15.67,30a33.8,33.8,0,0,1-3.56-8.79,32,32,0,0,1-.46-10,85.78,85.78,0,0,1,3-10.89c0-.46-.54-2.68-5.7-2.72s-9.58,1-10,2.34-1.08,4.52-2.14,7.63-13.56,31-16.83,38.18c-1.68,3.68-3.14,6.66-4.14,8.66h0a2.54,2.54,0,0,1-.16.38c-.88,1.73-1.42,2.69-1.42,2.69h0c-.72,1.26-1.46,2.42-1.84,2.42s-.8-3.34,0-8c1.88-9.66,6.32-24.75,6.28-25.25s.84-2.88-2.88-4.26a4.65,4.65,0,0,0-5.28.88c-.34,0-.54.8-.54.8s4-16.91-7.75-16.91c-7.4,0-17.59,8-22.65,15.41C81.85,114.29,75,118,67.82,122c-2.76,1.54-5.6,3.1-8.28,4.52-.16-.16-.38-.42-.55-.62C44.51,110.62,18,99.8,19.15,79.27c.4-7.49,3-27.14,50.89-51,39.4-19.44,70.72-14,76.17-2,7.74,17.05-16.79,48.65-57.5,53.22C73.18,81.21,65.06,75.22,63,73s-2.46-2.46-3.26-2c-1.31.72-.46,2.8,0,4C61,78.19,66,83.79,74.42,86.55c7.45,2.36,25.64,3.68,47.65-4.8,24.66-9.55,43.93-36,38.26-58.3S117.25-6.56,81.83,6C60.8,13.53,38,25.29,21.57,40.66,2,58.91-1,74.74.26,81.41c4.52,23.57,37.06,38.94,50,50.29-.66.38-1.26.72-1.76,1-6.51,3.22-31.28,16.21-37.46,29.89C4,178,12.19,189.23,17.55,190.73c16.71,4.64,33.88-3.68,43.09-17.47s8-31.62,3.84-39.82a2.11,2.11,0,0,0-.16-.3c1.68-1,3.44-2,5.1-3,3.3-2,6.62-3.77,9.43-5.29a61.27,61.27,0,0,0-3.31,17c-.72,8.79,2.89,20.23,7.63,24.7a8.34,8.34,0,0,0,6.16,2c5.53,0,8-4.56,10.77-10,3.34-6.66,6.4-14.37,6.4-14.37s-3.76,20.86,6.49,20.86c3.72,0,7.54-4.87,9.2-7.33h0l.3-.46c.38-.62.62-1,.62-1h0c1.5-2.64,4.87-8.54,9.89-18.43,6.44-12.73,12.69-28.64,12.69-28.64a76.5,76.5,0,0,0,2.4,10.35,105.39,105.39,0,0,0,5.32,12c-1.5,2-2.42,3.26-2.42,3.26h0c-1.22,1.6-2.52,3.3-4,5-5.11,6-11.19,13.07-12,15.07-1,2.38-.76,4.1,1.12,5.52a10.06,10.06,0,0,0,6.28,1,30,30,0,0,0,9.43-2.14,31.55,31.55,0,0,0,8-4.26,18,18,0,0,0,7.75-16A32.51,32.51,0,0,0,164.82,128l1.28-2a211.39,211.39,0,0,0,14-24.23A76.82,76.82,0,0,0,182.65,112a69.34,69.34,0,0,0,4.52,10.3A44.32,44.32,0,0,0,173.52,140c-2.92,8.51-.66,12.35,3.68,13.23a12.75,12.75,0,0,0,6.91-1.46,31.7,31.7,0,0,0,8.66-4.44c5-3.69,9.85-8.83,9.55-15.83a29.16,29.16,0,0,0-2.2-9.33A48.7,48.7,0,0,1,225,119.35c22.28,2.64,26.68,16.49,25.84,22.35a14.68,14.68,0,0,1-7.09,10c-1.54,1-2,1.3-2,2,.16,1,.92,1,2.26.8A17.38,17.38,0,0,0,256,139C256.71,125.25,243.6,110.26,220.45,110.38ZM48.71,168.3c-7.41,8-17.67,11.08-22,8.5-4.89-2.76-3-14.77,6.06-23.17A118.32,118.32,0,0,1,50,140.7c1.08-.66,2.68-1.6,4.56-2.76a4.14,4.14,0,0,0,.5-.3h0l1.12-.72A31.73,31.73,0,0,1,48.71,168.3Zm53.79-36.6C100,138,94.56,154,91.29,153.13c-2.8-.76-4.52-12.89-.54-24.92a56.92,56.92,0,0,1,8.75-16c4-4.49,8.46-6,9.54-4.15C110.38,110.38,104.06,127.79,102.5,131.7ZM146.89,153c-1.08.54-2,.92-2.57.66s.47-.92.47-.92,5.56-6,7.74-8.71c1.26-1.6,2.76-3.48,4.36-5.56v.62C156.89,146.19,150.09,151,146.89,153Zm34.26-7.83c-.8-.54-.66-2.42,2-8.28a32.1,32.1,0,0,1,7.62-9.85,13.28,13.28,0,0,1,.76,4.33C191.47,140.36,185,143.74,181.15,145.14Z"/></svg>