<svg id="Layer_1" data-name="Layer 1" xmlns="http://www.w3.org/2000/svg" viewBox="0 0 255.99 256"><defs><style>.cls-1{fill:#595959;}</style></defs><title>i-love-git</title><path class="cls-1" d="M251.26,116.71l-112-112A16.64,16.64,0,0,0,116,4.78L92.77,28l29.52,29.46a19.25,19.25,0,0,1,20,4.72A19.79,19.79,0,0,1,147,82.49l28.4,28.4A19.86,19.86,0,1,1,163.73,122L137.31,95.55v69.56a23.81,23.81,0,0,1,5.28,3.6,19.47,19.47,0,0,1,.34,27.53l-.34.34a20,20,0,0,1-27.86,0,19.45,19.45,0,0,1-.34-27.52l.34-.35a18.21,18.21,0,0,1,6.4-4.18V94.17a23,23,0,0,1-6.4-4.18,19.38,19.38,0,0,1-4.18-21.46L81.31,39.58,4.8,116.17a16.64,16.64,0,0,0,0,23.38L116.45,251.2a16.64,16.64,0,0,0,23.38,0L250.94,140.09a16.43,16.43,0,0,0,.48-23.22Z"/></svg>