<svg id="Layer_1" data-name="Layer 1" xmlns="http://www.w3.org/2000/svg" viewBox="0 0 256 229.8"><defs><style>.cls-1{fill:#a3a3a3;}.cls-2{fill:#555;}.cls-3{fill:#7d7d7d;}.cls-4{fill:#979797;}.cls-5{fill:#b4b4b4;}</style></defs><title>i-love-sketch</title><g id="Page-1"><g id="i-love-sketch"><polygon id="Shape" class="cls-1" points="55.85 7.57 128 0 200.15 7.57 256 81.94 128 229.8 0 81.94 55.85 7.57"/><path id="Shape-2" data-name="Shape" class="cls-2" d="M51.85,81.94,128,229.8,0,81.94m204.15,0L128,229.8,256,81.94"/><polyline id="Shape-3" data-name="Shape" class="cls-3" points="51.85 81.94 204.15 81.94 128 229.8"/><path id="Shape-4" data-name="Shape" class="cls-4" d="M128,0,55.85,7.56l-4,74.38M128,0l72.15,7.56,4,74.38"/><path id="Shape-5" data-name="Shape" class="cls-3" d="M256,81.94,200.15,7.56l4,74.38M0,81.94,55.85,7.56l-4,74.38"/><polyline id="Shape-6" data-name="Shape" class="cls-5" points="128 0 51.85 81.94 204.15 81.94"/></g></g></svg>