<svg id="Layer_1" data-name="Layer 1" xmlns="http://www.w3.org/2000/svg" viewBox="0 0 256 232.99"><defs><style>.cls-1{fill:#797979;}.cls-2{fill:#6f6f6f;}.cls-3{fill:#1f1f20;}.cls-4{fill:#3f3f3f;}.cls-5{fill:#202020;}</style></defs><title>i-love-sublime</title><path class="cls-1" d="M222.7,24.07A29,29,0,0,1,231,25.35,23.3,23.3,0,0,1,238,28.89a19.11,19.11,0,0,1,4.94,5.24,14.23,14.23,0,0,1,2.1,6.38l11,163.64a17.54,17.54,0,0,1-6,14.26,21.22,21.22,0,0,1-7.26,4.34,26.73,26.73,0,0,1-9.11,1.6H22.38a26.68,26.68,0,0,1-9.11-1.6A23.34,23.34,0,0,1,6,218.47a18.63,18.63,0,0,1-4.62-6.42A17.39,17.39,0,0,1,0,204.15L11,40.67a13.94,13.94,0,0,1,2.12-6.46A18.4,18.4,0,0,1,18,29,25.15,25.15,0,0,1,25,25.39a27,27,0,0,1,8.32-1.28H222.64Z"/><path class="cls-2" d="M253.39,214.47a18.81,18.81,0,0,1-4.82,5.2,23.77,23.77,0,0,1-6.74,3.5,26.9,26.9,0,0,1-8.11,1.28H22.38a25.11,25.11,0,0,1-8.11-1.28,22.55,22.55,0,0,1-6.74-3.5,19.41,19.41,0,0,1-4.82-5.2A17.26,17.26,0,0,1,.27,208l1.32,8.58A17.41,17.41,0,0,0,4,223.07a20.06,20.06,0,0,0,4.78,5.2,22.07,22.07,0,0,0,6.68,3.44,26.76,26.76,0,0,0,8,1.28H232.56a24.93,24.93,0,0,0,8-1.28,22.07,22.07,0,0,0,6.68-3.44,20.06,20.06,0,0,0,4.78-5.2,17.32,17.32,0,0,0,2.44-6.46l1.32-8.58A17.54,17.54,0,0,1,253.39,214.47Z"/><path class="cls-3" d="M213.26,30.11a28,28,0,0,1,8.28,1.28,24.27,24.27,0,0,1,6.9,3.5,18.12,18.12,0,0,1,4.82,5.2,14,14,0,0,1,2,6.42l9.12,144.35a16.79,16.79,0,0,1-1.32,7.63,17.85,17.85,0,0,1-4.62,6.26,21.79,21.79,0,0,1-7.15,4.24,26.2,26.2,0,0,1-9,1.54H34.62a26.2,26.2,0,0,1-9-1.54,21.79,21.79,0,0,1-7.15-4.24,18.63,18.63,0,0,1-4.6-6.28,15.89,15.89,0,0,1-1.32-7.63L21.64,46.51a14.18,14.18,0,0,1,2-6.42,18.81,18.81,0,0,1,4.82-5.2,24.94,24.94,0,0,1,6.9-3.5,28,28,0,0,1,8.28-1.28H213.26Z"/><path class="cls-4" d="M216.66,0A24.07,24.07,0,0,1,224,1.16a21,21,0,0,1,6.16,3.12,16.31,16.31,0,0,1,4.33,4.66,12.89,12.89,0,0,1,1.86,5.72l9.34,150.8a14.1,14.1,0,0,1-1.22,6.84,16.2,16.2,0,0,1-4,5.62,20.85,20.85,0,0,1-6.53,3.86,23.26,23.26,0,0,1-8,1.38H31a23.26,23.26,0,0,1-8-1.38A19.51,19.51,0,0,1,16.67,178a15.44,15.44,0,0,1-4-5.62,14.73,14.73,0,0,1-1.22-6.84L20.62,14.7A12.37,12.37,0,0,1,22.48,9,16.56,16.56,0,0,1,26.82,4.3,21.81,21.81,0,0,1,33,1.18,24,24,0,0,1,40.36,0Z"/><path class="cls-5" d="M243.47,174.24a17.84,17.84,0,0,1-4.3,4.66,20.87,20.87,0,0,1-6,3.12,23,23,0,0,1-7.26,1.12H31A25.22,25.22,0,0,1,23.76,182a20.87,20.87,0,0,1-6-3.12,16.91,16.91,0,0,1-4.3-4.66,15.25,15.25,0,0,1-2.12-5.76h0L15,194a14.36,14.36,0,0,0,2,5.68,15.79,15.79,0,0,0,4.13,4.56,19.67,19.67,0,0,0,5.84,3,23.17,23.17,0,0,0,7.1,1.18H223a21.37,21.37,0,0,0,7-1.12,19.49,19.49,0,0,0,5.83-3,16.68,16.68,0,0,0,4.14-4.56,14.35,14.35,0,0,0,1.74-4.18l.32-1.48,3.56-25.63A14.69,14.69,0,0,1,243.47,174.24Z"/><path class="cls-5" d="M126.8,30.85a78.38,78.38,0,0,1,17.34,1.8,48.15,48.15,0,0,1,14.79,5.86,30.1,30.1,0,0,1,10.4,10.28,29.83,29.83,0,0,1,4,15.38H148.59a16.84,16.84,0,0,0-2.27-7.8,14,14,0,0,0-5-4.82,22.5,22.5,0,0,0-7.1-2.44,48.44,48.44,0,0,0-8.58-.68,30.38,30.38,0,0,0-6.16.64,19.82,19.82,0,0,0-5.68,2,11.14,11.14,0,0,0-4.14,3.66A9.84,9.84,0,0,0,108,60.17a8,8,0,0,0,1.28,4.93,11.37,11.37,0,0,0,5.12,3.4A75.37,75.37,0,0,0,125,71.74c4.62,1.16,10.5,2.5,17.82,4.24,2.12.48,5.36,1.16,9,2.22a56.18,56.18,0,0,1,11.62,4.88,30.53,30.53,0,0,1,10.12,9.06,26.82,26.82,0,0,1,4.42,15A30.31,30.31,0,0,1,175.07,121a30.8,30.8,0,0,1-9.28,11.14,46.73,46.73,0,0,1-15.48,7.42,79.37,79.37,0,0,1-21.47,2.7,76.3,76.3,0,0,1-19.2-2.34,52.16,52.16,0,0,1-16.27-7.1,32.86,32.86,0,0,1-14.76-29.41h25.14a18.23,18.23,0,0,0,2,9.17,17,17,0,0,0,5.72,6.26,27.11,27.11,0,0,0,8.54,3.54,43.68,43.68,0,0,0,10,1.12,46.94,46.94,0,0,0,7.48-.58,32.12,32.12,0,0,0,7.52-2,14.51,14.51,0,0,0,5.77-4.14,10.54,10.54,0,0,0,2.22-6.86,9.55,9.55,0,0,0-3-7.09,22.49,22.49,0,0,0-8-4.56,91.56,91.56,0,0,0-11.24-3.18c-4-1-8.44-1.86-12.78-2.92a122.4,122.4,0,0,1-12.91-3.64A48.89,48.89,0,0,1,93.89,83,25.19,25.19,0,0,1,86,74.5a24.82,24.82,0,0,1-2.82-12.39,26.86,26.86,0,0,1,4-13.9,32.12,32.12,0,0,1,10-9.76,48.23,48.23,0,0,1,13.89-5.72A66.66,66.66,0,0,1,126.8,30.85Z"/><path class="cls-2" d="M126.8,35.89a80.21,80.21,0,0,1,17.34,1.8,48.17,48.17,0,0,1,14.79,5.78,30.1,30.1,0,0,1,10.4,10.28,29.82,29.82,0,0,1,4,15.37H148.59a16.84,16.84,0,0,0-2.27-7.79,14,14,0,0,0-5-4.82,22.5,22.5,0,0,0-7.1-2.44,48.44,48.44,0,0,0-8.58-.68,29.69,29.69,0,0,0-6.16.64,19.82,19.82,0,0,0-5.68,2,11.14,11.14,0,0,0-4.14,3.66A9.85,9.85,0,0,0,108,65.2a8,8,0,0,0,1.28,4.94,11.35,11.35,0,0,0,5.1,3.5A75.37,75.37,0,0,0,125,76.88c4.62,1.16,10.5,2.5,17.82,4.24,2.12.48,5.36,1.16,9,2.22a55.64,55.64,0,0,1,11.62,4.88,30.53,30.53,0,0,1,10.12,9.06A26.82,26.82,0,0,1,178,112.17,30.35,30.35,0,0,1,175.07,126a30.8,30.8,0,0,1-9.28,11.14,46.74,46.74,0,0,1-15.4,7.34,79.37,79.37,0,0,1-21.47,2.7,76.3,76.3,0,0,1-19.2-2.34,52.16,52.16,0,0,1-16.27-7.1,32.87,32.87,0,0,1-14.84-29.26h25.14a18.24,18.24,0,0,0,2,9.18,17,17,0,0,0,5.72,6.26,27.27,27.27,0,0,0,8.54,3.46,43.73,43.73,0,0,0,10,1.1,46.94,46.94,0,0,0,7.48-.58,32.12,32.12,0,0,0,7.52-2,14.51,14.51,0,0,0,5.77-4.14,10.53,10.53,0,0,0,2.28-6.78,9.58,9.58,0,0,0-3.06-7.16,22.47,22.47,0,0,0-8-4.55,91.56,91.56,0,0,0-11.24-3.18c-4-1-8.44-1.86-12.78-2.92a123.81,123.81,0,0,1-12.83-3.72A48.89,48.89,0,0,1,94,87.94a25.15,25.15,0,0,1-8-8.42,24.86,24.86,0,0,1-2.82-12.4,26.85,26.85,0,0,1,4-13.89,32.12,32.12,0,0,1,10-9.76,48.23,48.23,0,0,1,13.89-5.72A66.64,66.64,0,0,1,126.8,35.89Z"/></svg>