<svg id="Layer_1" data-name="Layer 1" xmlns="http://www.w3.org/2000/svg" viewBox="0 0 256 256"><defs><style>.cls-1{fill:#595959;}.cls-2{fill:#1f1f1f;}</style></defs><title>i-love-javascript</title><rect class="cls-1" width="256" height="256"/><path class="cls-2" d="M67.22,213.7,86.8,202c3.72,6.7,7.2,12.38,15.44,12.38,8,0,12.88-3.1,12.88-15.14V117.46h24v82c0,24.94-14.6,36.22-35.84,36.22-19.24,0-30.42-10-36-22"/><path class="cls-2" d="M152.22,211.12l19.58-11.34c5.18,8.4,11.8,14.6,23.72,14.6,10,0,16.28-5,16.28-11.8,0-8.24-6.56-11.16-17.48-16l-6-2.6c-17.32-7.36-28.82-16.64-28.82-36.22,0-18,13.76-31.74,35.18-31.74,15.26,0,26.26,5.36,34.14,19.24l-18.78,12c-4-7.36-8.58-10.3-15.44-10.3s-11.5,4.48-11.5,10.3c0,7.2,4.48,10.12,14.76,14.6l6,2.6c20.46,8.78,31.88,17.66,31.88,37.74,0,21.62-17,33.5-39.82,33.5-22.26,0-36.64-10.76-43.68-24.64"/></svg>