<svg id="Layer_1" data-name="Layer 1" xmlns="http://www.w3.org/2000/svg" viewBox="0 0 256 226.24"><defs><style>.cls-1{fill:#595959;}</style></defs><title>i-love-mdn</title><path class="cls-1" d="M192.44,0h0L128.3,25.64,64.14,0h0L0,25.64v200.6l64.14-24.5,64.14,24.5h0l63.56-24.5L256,226.24V25.64Zm24.5,116.62c-2.34,4.66-8.16,18-5.84,15.16-2.34,2.92-4,3.5-10,2.34a86.6,86.6,0,0,1-12.24,7.58c-5.84,1.16-18-2.92-23.32-4-10.5-1.74-11.08.58-20.42,5.24-13.42,6.42-10.5,23.32-15.74,32.66h0c.58,1.16.58,2.34,1.16,2.92h0c0,1.16.58,1.74.58,2.92a83,83,0,0,1-44.32-7,83.74,83.74,0,0,1-27.4-22.16c1.74-1.16,3.5-1.74,5.24-2.92h0a12.67,12.67,0,0,0,2.92-1.74H65.82c-3.5-.58-1.16-.58-4-.58a31.24,31.24,0,0,1,8.18-7.1l.58-.58c-4,1.16-10,2.92-12.82,5.84,1.16-5.24,5.24-8.74,7-13.42a69.31,69.31,0,0,0-13.44,9.34c0-4.66,5.24-8.74,7.58-12.24,1.74-2.92,4-4.66,5.24-7a111.93,111.93,0,0,0-20.42,10.5c2.28-7,11.1-16.92,16.28-22.18-4.66.58-15.74,7-19.82,9.34v-1.16c3.5-5.24,14-14,19.24-18.66-5.84.58-17.5,7-23.32,8.74,4.66-8.74,20.42-19.24,28-25.66l-18,4.66c-2.34.58-5.24,2.34-7.58,1.74a261.45,261.45,0,0,1,41.4-33.82s17.46-12.26,35-10.48c8.16,2.34,15.16,5.24,23.32,7,7-1.74,16.32-4,23.32.58,4.66,4,8.74,10,6.42,16.32C180.18,82.22,207,84,214.6,93.88c1.16,1.74.58,12.82,2.92,19.82Z"/></svg>