<svg xmlns="http://www.w3.org/2000/svg" width="310" height="4" viewBox="0 0 310 4">
  <path fill="#89BC41" d="M308.436364,25 L309.844179,25 L311,26.161075 L311,27.5752886 L308.436364,25 L308.436364,25 Z M304.454464,25 L305.862278,25 L309.844179,29 L308.436364,29 L304.454464,25 L304.454464,25 Z M300.472563,25 L301.880378,25 L305.862278,29 L304.454464,29 L300.472563,25 L300.472563,25 Z M296.490663,25 L297.898477,25 L301.880378,29 L300.472563,29 L296.490663,25 L296.490663,25 Z M292.508762,25 L293.916577,25 L297.898477,29 L296.490663,29 L292.508762,25 L292.508762,25 Z M288.526862,25 L289.934676,25 L293.916577,29 L292.508762,29 L288.526862,25 Z M284.544962,25 L285.952776,25 L289.934676,29 L288.526862,29 L284.544962,25 L284.544962,25 Z M280.563061,25 L281.970876,25 L285.952776,29 L284.544962,29 L280.563061,25 L280.563061,25 Z M276.581161,25 L277.988975,25 L281.970876,29 L280.563061,29 L276.581161,25 L276.581161,25 Z M272.59926,25 L274.007075,25 L277.988975,29 L276.581161,29 L272.59926,25 L272.59926,25 Z M268.61736,25 L270.025174,25 L274.007075,29 L272.59926,29 L268.61736,25 L268.61736,25 Z M264.635459,25 L266.043274,25 L270.025174,29 L268.61736,29 L264.635459,25 Z M260.653559,25 L262.061373,25 L266.043274,29 L264.635459,29 L260.653559,25 L260.653559,25 Z M256.671658,25 L258.079473,25 L262.061373,29 L260.653559,29 L256.671658,25 L256.671658,25 Z M252.689758,25 L254.097572,25 L258.079473,29 L256.671658,29 L252.689758,25 L252.689758,25 Z M248.707858,25 L250.115672,25 L254.097572,29 L252.689758,29 L248.707858,25 L248.707858,25 Z M244.725957,25 L246.133771,25 L250.115672,29 L248.707858,29 L244.725957,25 L244.725957,25 Z M240.744057,25 L242.151871,25 L246.133771,29 L244.725957,29 L240.744057,25 L240.744057,25 Z M236.762156,25 L238.169971,25 L242.151871,29 L240.744057,29 L236.762156,25 L236.762156,25 Z M232.780256,25 L234.18807,25 L238.169971,29 L236.762156,29 L232.780256,25 L232.780256,25 Z M228.798355,25 L230.20617,25 L234.18807,29 L232.780256,29 L228.798355,25 L228.798355,25 Z M224.816455,25 L226.224269,25 L230.20617,29 L228.798355,29 L224.816455,25 L224.816455,25 Z M220.834554,25 L222.242369,25 L226.224269,29 L224.816455,29 L220.834554,25 L220.834554,25 Z M216.852654,25 L218.260468,25 L222.242369,29 L220.834554,29 L216.852654,25 L216.852654,25 Z M212.870753,25 L214.278568,25 L218.260468,29 L216.852654,29 L212.870753,25 L212.870753,25 Z M208.888853,25 L210.296667,25 L214.278568,29 L212.870753,29 L208.888853,25 L208.888853,25 Z M204.906953,25 L206.314767,25 L210.296667,29 L208.888853,29 L204.906953,25 L204.906953,25 Z M200.925052,25 L202.332866,25 L206.314767,29 L204.906953,29 L200.925052,25 L200.925052,25 Z M196.943152,25 L198.350966,25 L202.332866,29 L200.925052,29 L196.943152,25 L196.943152,25 Z M192.961251,25 L194.369066,25 L198.350966,29 L196.943152,29 L192.961251,25 L192.961251,25 Z M188.979351,25 L190.387165,25 L194.369066,29 L192.961251,29 L188.979351,25 L188.979351,25 Z M184.99745,25 L186.405265,25 L190.387165,29 L188.979351,29 L184.99745,25 L184.99745,25 Z M181.01555,25 L182.423364,25 L186.405265,29 L184.99745,29 L181.01555,25 L181.01555,25 Z M177.033649,25 L178.441464,25 L182.423364,29 L181.01555,29 L177.033649,25 L177.033649,25 Z M173.051749,25 L174.459563,25 L178.441464,29 L177.033649,29 L173.051749,25 L173.051749,25 Z M169.069848,25 L170.477663,25 L174.459563,29 L173.051749,29 L169.069848,25 Z M165.087948,25 L166.495762,25 L170.477663,29 L169.069848,29 L165.087948,25 L165.087948,25 Z M161.106048,25 L162.513862,25 L166.495762,29 L165.087948,29 L161.106048,25 L161.106048,25 Z M157.124147,25 L158.531962,25 L162.513862,29 L161.106048,29 L157.124147,25 L157.124147,25 Z M153.142247,25 L154.550061,25 L158.531962,29 L157.124147,29 L153.142247,25 L153.142247,25 Z M149.160346,25 L150.568161,25 L154.550061,29 L153.142247,29 L149.160346,25 L149.160346,25 Z M145.178446,25 L146.58626,25 L150.568161,29 L149.160346,29 L145.178446,25 L145.178446,25 Z M141.196545,25 L142.60436,25 L146.58626,29 L145.178446,29 L141.196545,25 L141.196545,25 Z M137.214645,25 L138.622459,25 L142.60436,29 L141.196545,29 L137.214645,25 L137.214645,25 Z M133.232744,25 L134.640559,25 L138.622459,29 L137.214645,29 L133.232744,25 L133.232744,25 Z M129.250844,25 L130.658658,25 L134.640559,29 L133.232744,29 L129.250844,25 Z M125.268943,25 L126.676758,25 L130.658658,29 L129.250844,29 L125.268943,25 L125.268943,25 Z M121.287043,25 L122.694857,25 L126.676758,29 L125.268943,29 L121.287043,25 Z M117.305143,25 L118.712957,25 L122.694857,29 L121.287043,29 L117.305143,25 L117.305143,25 Z M113.323242,25 L114.731057,25 L118.712957,29 L117.305143,29 L113.323242,25 L113.323242,25 Z M109.341342,25 L110.749156,25 L114.731057,29 L113.323242,29 L109.341342,25 L109.341342,25 Z M105.359441,25 L106.767256,25 L110.749156,29 L109.341342,29 L105.359441,25 Z M101.377541,25 L102.785355,25 L106.767256,29 L105.359441,29 L101.377541,25 L101.377541,25 Z M97.3956403,25 L98.8034547,25 L102.785355,29 L101.377541,29 L97.3956403,25 L97.3956403,25 Z M93.4137399,25 L94.8215543,25 L98.8034547,29 L97.3956403,29 L93.4137399,25 L93.4137399,25 Z M89.4318394,25 L90.8396538,25 L94.8215543,29 L93.4137399,29 L89.4318394,25 L89.4318394,25 Z M85.449939,25 L86.8577534,25 L90.8396538,29 L89.4318394,29 L85.449939,25 Z M81.4680385,25 L82.8758529,25 L86.8577534,29 L85.449939,29 L81.4680385,25 Z M77.486138,25 L78.8939525,25 L82.8758529,29 L81.4680385,29 L77.486138,25 L77.486138,25 Z M73.5042376,25 L74.912052,25 L78.8939525,29 L77.486138,29 L73.5042376,25 L73.5042376,25 Z M69.5223371,25 L70.9301515,25 L74.912052,29 L73.5042376,29 L69.5223371,25 L69.5223371,25 Z M65.5404367,25 L66.9482511,25 L70.9301515,29 L69.5223371,29 L65.5404367,25 Z M61.5585362,25 L62.9663506,25 L66.9482511,29 L65.5404367,29 L61.5585362,25 L61.5585362,25 Z M57.5766358,25 L58.9844502,25 L62.9663506,29 L61.5585362,29 L57.5766358,25 Z M53.5947353,25 L55.0025497,25 L58.9844502,29 L57.5766358,29 L53.5947353,25 Z M49.6128349,25 L51.0206493,25 L55.0025497,29 L53.5947353,29 L49.6128349,25 Z M45.6309344,25 L47.0387488,25 L51.0206493,29 L49.6128349,29 L45.6309344,25 L45.6309344,25 Z M41.649034,25 L43.0568484,25 L47.0387488,29 L45.6309344,29 L41.649034,25 Z M37.6671335,25 L39.0749479,25 L43.0568484,29 L41.649034,29 L37.6671335,25 Z M33.6852331,25 L35.0930475,25 L39.0749479,29 L37.6671335,29 L33.6852331,25 L33.6852331,25 Z M29.7033326,25 L31.111147,25 L35.0930475,29 L33.6852331,29 L29.7033326,25 Z M25.7214322,25 L27.1292466,25 L31.111147,29 L29.7033326,29 L25.7214322,25 L25.7214322,25 Z M21.7395317,25 L23.1473461,25 L27.1292466,29 L25.7214322,29 L21.7395317,25 Z M17.7576313,25 L19.1654457,25 L23.1473461,29 L21.7395317,29 L17.7576313,25 Z M13.7757308,25 L15.1835452,25 L19.1654457,29 L17.7576313,29 L13.7757308,25 Z M9.79383035,25 L11.2016448,25 L15.1835452,29 L13.7757308,29 L9.79383035,25 Z M5.8119299,25 L7.21974431,25 L11.2016448,29 L9.79383035,29 L5.8119299,25 Z M1.83002945,25 L3.23784385,25 L7.21974431,29 L5.8119299,29 L1.83002945,25 Z M1,26.7519841 L3.23784385,29 L1.83002945,29 L1,28.1661977 L1,26.7519841 L1,26.7519841 Z" transform="translate(-1 -25)"/>
</svg>
