<svg xmlns="http://www.w3.org/2000/svg" width="8" height="8" viewBox="0 0 8 8">
  <path fill="#080808" d="M7.11328125,8.37255859 L5.34521484,10.1323242 C5.15706286,10.3260101 5.01041719,10.4505206 4.90527344,10.5058594 C4.80012968,10.5611982 4.68115301,10.5888672 4.54833984,10.5888672 C4.31038292,10.5888672 4.10839927,10.5044768 3.94238281,10.3356934 C3.77636636,10.16691 3.69335938,9.96077596 3.69335938,9.71728516 C3.69335938,9.59553976 3.72102837,9.48071343 3.77636719,9.37280273 C3.83170601,9.26489204 3.95344958,9.11686292 4.14160156,8.92871094 L5.90966797,7.16894531 L4.18310547,5.44238281 C3.99495349,5.25423083 3.87320991,5.10758516 3.81787109,5.00244141 C3.76253228,4.89729765 3.73486328,4.77832098 3.73486328,4.64550781 C3.73486328,4.40755089 3.81787026,4.20556724 3.98388672,4.03955078 C4.14990317,3.87353433 4.35742063,3.79052734 4.60644531,3.79052734 C4.72819071,3.79052734 4.84163359,3.81819634 4.94677734,3.87353516 C5.0519211,3.92887397 5.19856677,4.05061755 5.38671875,4.23876953 L7.11328125,5.96533203 L8.86474609,4.21386719 C9.05289808,4.02018132 9.19954375,3.89567085 9.3046875,3.84033203 C9.40983125,3.78499321 9.52880793,3.75732422 9.66162109,3.75732422 C9.89957801,3.75732422 10.1015617,3.84171465 10.2675781,4.01049805 C10.4335946,4.17928144 10.5166016,4.38541545 10.5166016,4.62890625 C10.5166016,4.75065165 10.4889326,4.86547798 10.4335938,4.97338867 C10.3782549,5.08129937 10.2565114,5.22932849 10.0683594,5.41748047 L8.31689453,7.16894531 L10.0351562,8.88720703 C10.2233082,9.07535901 10.3450518,9.22200468 10.4003906,9.32714844 C10.4557294,9.43229219 10.4833984,9.55126887 10.4833984,9.68408203 C10.4833984,9.92203895 10.4003915,10.1240226 10.234375,10.2900391 C10.0683585,10.4560555 9.86084109,10.5390625 9.61181641,10.5390625 C9.49007101,10.5390625 9.37662813,10.5113935 9.27148438,10.4560547 C9.16634062,10.4007159 9.01969495,10.2789723 8.83154297,10.0908203 L7.11328125,8.37255859 Z" transform="translate(-3 -3)"/>
</svg>
